<?xml version="1.0" encoding="UTF-8"?>
<svg width="20px" height="24px" viewBox="0 0 20 24" version="1.1" xmlns="http://www.w3.org/2000/svg" xmlns:xlink="http://www.w3.org/1999/xlink">
    <!-- Generator: Sketch 51.2 (57519) - http://www.bohemiancoding.com/sketch -->
    <title>Group</title>
    <desc>Created with Sketch.</desc>
    <defs></defs>
    <g id="Symbols" stroke="none" stroke-width="1" fill="none" fill-rule="evenodd">
        <g id="top-header-1280" transform="translate(-980.000000, -3.000000)">
            <g id="top-header">
                <g id="fifth-member" transform="translate(978.000000, 3.000000)">
                    <g id="icon">
                        <g id="Group" transform="translate(2.000000, 0.000000)">
                            <path d="M7.08507126,18.4842582 C7.09503876,18.4388776 7.10235481,18.3481673 7.10809963,18.2454907 L6.17144918,18.998503 C6.20567257,19.0109256 6.23925764,19.0282665 6.27451215,19.0364807 C6.34433376,19.0527568 6.41469547,19.0637597 6.47248734,18.9959678 C6.48927987,18.9762945 6.52954268,18.9574831 6.54987049,18.9649366 C6.5798712,18.9759395 6.6096755,18.9905931 6.64051092,18.9946495 C6.67664924,18.9994157 6.70385119,18.9902382 6.73822188,19.0119904 C6.74730557,19.0177707 6.75761677,19.0250722 6.76778068,19.0216243 C6.77995772,19.0175172 6.78285468,19.0015453 6.78540793,18.9885649 C6.78967972,18.9670155 6.798567,18.9465309 6.81123505,18.9289365 C6.81442662,18.9244745 6.81825649,18.9199618 6.8234612,18.9187956 C6.83387061,18.9165646 6.84162856,18.9282266 6.84614585,18.938114 C6.85753728,18.9628578 6.86897781,18.9876016 6.88036924,19.0123453 C6.92127037,18.9674719 6.91960093,18.8891842 6.96894743,18.8545023 C6.99614937,18.8992236 7.01284371,18.9507394 7.0171155,19.0033706 C7.01996335,19.0388638 7.01799931,19.0772978 7.0373451,19.1068078 C7.04004566,19.1108641 7.04328632,19.1148698 7.04785271,19.1162388 C7.06047167,19.1200417 7.06862243,19.1028528 7.07102838,19.0895683 C7.08919575,18.990441 7.11801803,18.8719446 7.10574278,18.7712962 C7.09405674,18.6750591 7.06336863,18.5831319 7.08507126,18.4842582 Z M6.23458554,6.7293197 C6.22705923,6.7276697 6.21953291,6.7261697 6.21200659,6.7245197 C6.21953291,6.7401197 6.22705923,6.7557197 6.23458554,6.7713197 C6.23458554,6.7573697 6.23458554,6.7432697 6.23458554,6.7293197 Z M5.58081339,7.1851284 C5.6016555,7.18536301 5.63755023,7.18919497 5.64087918,7.1852066 C5.66577392,7.15509835 5.68864234,7.12389525 5.70253708,7.09191012 C5.70702392,7.08119627 5.68328708,7.06688507 5.65781339,7.03701143 C5.62611602,7.06977859 5.59991866,7.08815636 5.5906555,7.10880202 C5.5796555,7.13327964 5.58341866,7.15963414 5.58081339,7.1851284 Z M5.85145804,7.02364158 C5.97119683,7.00156129 6.04827007,6.96579487 5.95426824,6.87364158 C5.91999817,6.92364158 5.88572811,6.97364158 5.85145804,7.02364158 Z M6.01659131,6.77982169 C6.01745973,6.80185031 6.0546571,6.82331889 6.09851236,6.86802953 C6.12644657,6.8260258 6.15394657,6.80483725 6.14685447,6.79102268 C6.13339394,6.76451366 6.10039394,6.74211167 6.0754992,6.71802953 C6.05436762,6.73865803 6.01586762,6.75956655 6.01659131,6.77982169 Z M6.2811006,7.26229144 C6.2888807,7.26655062 6.3182722,7.26797034 6.32086557,7.26553653 C6.35400304,7.23435327 6.39098254,7.20347424 6.41240183,7.16990787 C6.42479237,7.15064017 6.41067292,7.12665695 6.40644669,7.0841666 C6.37551839,7.09947935 6.34439798,7.10779488 6.33623367,7.12031889 C6.31058815,7.15936134 6.29291483,7.19982352 6.27408891,7.24003217 C6.27091923,7.24697869 6.27284025,7.25767733 6.2811006,7.26229144 Z M6.37664945,6.95370396 C6.39012236,6.95740539 6.40359527,6.96110682 6.41716511,6.96480824 C6.42676092,6.95461664 6.4412031,6.94498279 6.44527405,6.93423344 C6.46562881,6.88053739 6.48578971,6.82673994 6.49926262,6.77253685 C6.50158888,6.762903 6.46863356,6.74120148 6.45758383,6.74221557 C6.42724556,6.7449029 6.37616481,6.75600719 6.37519554,6.76503258 C6.36879833,6.82775403 6.33148128,6.89184449 6.37664945,6.95370396 Z M4.98772256,15.1700611 C4.98904828,15.1462807 4.97883528,15.1219425 4.97942449,15.0980607 C4.98173224,14.9965503 4.98197774,14.894685 4.99071772,14.7936817 C5.00431869,14.6358894 5.01757596,14.4775393 5.04315757,14.3214709 C5.07325648,14.1376164 5.06603863,13.9529507 5.07227446,13.7684878 C5.07693905,13.6300645 5.07615344,13.4913371 5.07531872,13.3527617 C5.07468041,13.2421753 5.06790447,13.1316902 5.06824818,13.0211544 C5.06864099,12.9029623 5.0742385,12.7848208 5.07743006,12.6666794 C5.08067073,12.5487408 5.07148884,12.4286218 5.09112924,12.3137255 C5.10463201,12.2349307 5.08572813,12.163843 5.08469701,12.0893074 C5.08312578,11.9712674 5.07576063,11.8533288 5.07315828,11.7352888 C5.07188165,11.6751025 5.07841208,11.6147642 5.07630074,11.5546794 C5.074484,11.5029101 5.12564723,11.4510901 5.12437061,11.3993209 C5.12029523,11.2384355 5.1191659,11.0774488 5.11730007,10.9165128 C5.11636715,10.8366532 5.11818388,10.7566922 5.11494322,10.6768834 C5.11361749,10.6436212 5.09343699,10.6095985 5.09736506,10.5779589 C5.11199716,10.4597161 5.10595774,10.3414732 5.1038955,10.2233825 C5.10212786,10.1205031 5.09029452,10.0177758 5.08656285,9.91489643 C5.08219286,9.79396624 5.08283117,9.67288394 5.0794432,9.55190304 C5.07728276,9.47599843 5.07016312,9.40024593 5.06859189,9.32439203 C5.06780627,9.28707353 5.07797017,9.24960292 5.07723366,9.21228442 C5.07590793,9.14515168 5.07001581,9.07812036 5.06613684,9.01098762 C5.06250336,8.94826618 5.05813337,8.88549403 5.05562922,8.82267118 C5.05371429,8.77434981 5.05479451,8.72592703 5.05351788,8.67760565 C5.04978621,8.54039933 5.03152064,8.40162116 5.04605453,8.26654442 C5.05715135,8.16331009 5.04119353,8.06256028 5.05057182,7.96130343 C5.06211055,7.83636759 5.07526962,7.5593183 5.09019632,7.43478809 C5.09819978,7.36765536 5.10978761,7.30087755 5.12284848,7.23455609 C5.13016452,7.19754182 5.14725167,7.16645997 5.19222817,7.1668149 C5.19929872,7.16691631 5.2082351,7.15809373 5.21314519,7.15104581 C5.23229458,7.1238175 5.25016734,7.09567651 5.26499584,7.07316372 C5.28679668,7.09567651 5.30604426,7.13045979 5.32185478,7.12883724 C5.36417983,7.12462877 5.35931884,7.0785891 5.36540736,7.04679739 C5.37861552,6.97809282 5.3872082,6.90847556 5.39982715,6.83961888 C5.41318262,6.76640161 5.47239841,6.76944387 5.51089359,6.81619341 C5.54806303,6.74698179 5.58744203,6.67893637 5.62883416,6.61225998 C5.67484178,6.67802369 5.70921248,6.75240717 5.72978579,6.83069489 C5.73420488,6.84742737 5.73896768,6.8658838 5.75281415,6.87572047 C5.77746285,6.89321352 5.81222635,6.86988945 5.82342137,6.84124142 C5.8346164,6.81264409 5.83225955,6.78019322 5.84090133,6.75058181 C5.849494,6.72102109 5.87767797,6.69232236 5.90600924,6.70220973 C5.94362059,6.7153929 5.93925061,6.77715096 5.97165726,6.80088065 C5.99714067,6.74840151 6.02267318,6.69592237 6.0481566,6.64349394 C6.06391801,6.61104307 6.09136547,6.5729133 6.12509785,6.5830542 C6.14498375,6.58908803 6.15637517,6.61007969 6.16565526,6.62924598 L6.21200659,6.7245197 C6.20989525,6.72406336 6.20778391,6.72365773 6.20572167,6.72320139 C6.1926608,6.76112834 6.17959994,6.799106 6.16540976,6.84027804 C6.1625619,6.82886953 6.16015595,6.81903286 6.15775,6.80914548 C6.15382192,6.80950041 6.14984474,6.80985535 6.14591666,6.81021028 C6.14743879,6.82755121 6.14630947,6.84575412 6.15097407,6.86218237 C6.16575346,6.91435728 6.19074587,6.96445331 6.15411653,7.01941697 C6.14518015,7.03280295 6.1527908,7.05795238 6.1527908,7.07772713 C6.15833921,7.07940037 6.16388763,7.08102292 6.16948514,7.08274687 C6.18431364,7.05034671 6.20822582,7.01911274 6.212203,6.98534356 C6.22030466,6.91597983 6.21789871,6.84529778 6.21961725,6.77512278 C6.21991185,6.76351145 6.21971545,6.75190012 6.21966635,6.7403395 C6.22585307,6.75311703 6.2320889,6.76584386 6.23827562,6.77862139 C6.24357853,6.78957355 6.25035447,6.80169192 6.2619423,6.80422715 C6.27446305,6.80691449 6.28600178,6.79702711 6.29493816,6.78754537 C6.36358134,6.71437881 6.43183172,6.61170223 6.47130891,6.51901444 C6.49296245,6.52682293 6.50602331,6.54025961 6.52433798,6.55471039 C6.53931378,6.56652454 6.55222734,6.58254715 6.56887258,6.59040635 C6.67728756,6.64151647 6.68303237,6.75509451 6.64272046,6.84996259 C6.62882488,6.88276839 6.63825227,6.89960228 6.65627233,6.92769256 C6.67576543,6.95801384 6.68666585,7.00466197 6.67979171,7.03959736 C6.67321217,7.07265668 6.66275366,7.1034343 6.69044662,7.12184003 C6.7042931,7.13096683 6.73365549,7.11499492 6.75599644,7.11063433 C6.7588443,7.11007659 6.76193766,7.11109068 6.76935191,7.11180054 C6.75295218,7.17310226 6.75835329,7.22913071 6.81437752,7.27035345 C6.85572055,7.26665203 6.87452623,7.24287162 6.86662097,7.20646581 C6.88866731,7.2063644 6.9080622,7.20377847 6.92647507,7.20697285 C6.93840661,7.20905173 6.95485544,7.21675882 6.95922543,7.22669689 C6.99447994,7.30635364 7.03842532,7.38443854 7.05772201,7.46840516 C7.07584028,7.5468957 7.09994886,7.62655244 7.08315632,7.71391626 C7.06940805,7.78540958 7.08246891,8.01434032 7.08133959,8.08867309 C7.07937555,8.2165498 7.07466185,8.3444265 7.07318882,8.4722525 C7.07259961,8.52620207 7.07795162,8.58020234 7.07937555,8.63420262 C7.08148689,8.71588754 7.08300902,8.79757246 7.08379464,8.87930808 C7.08502216,8.99891996 7.08251801,9.11863324 7.086888,9.238093 C7.09091428,9.34913582 7.10515357,9.4598237 7.10883614,9.57086652 C7.11320613,9.7007207 7.10976906,9.83072699 7.1119786,9.96063187 C7.11551388,10.1667456 7.12052218,10.3728593 7.12572688,10.578973 C7.12960586,10.733064 7.13333753,10.8871549 7.13981886,11.0411444 C7.1464966,11.1997987 7.09278012,11.3586559 7.10073448,11.5172595 C7.10564458,11.6159304 7.10780502,11.7147534 7.11399174,11.8133737 C7.11742881,11.868388 7.12774002,11.922946 7.13265012,11.9779097 C7.13593989,12.0144676 7.13368124,12.0514819 7.1363818,12.0880905 C7.14251942,12.1710938 7.15464736,12.2538942 7.1562677,12.3368974 C7.15891915,12.4787179 7.16923036,12.6203355 7.15381265,12.7627644 C7.14394335,12.8536775 7.15749522,12.9471766 7.15081749,13.0387489 C7.13844404,13.2077469 7.15381265,13.3759844 7.15567848,13.5444754 C7.15685691,13.6505492 7.15229052,14.4496518 7.14909895,14.8934681 L5.03544872,17.5760902 C5.02734706,17.4452726 5.0193927,17.314455 5.0144826,17.1835361 C5.01202755,17.1189386 5.02719975,17.053834 5.03250266,16.9888309 C5.03981871,16.8983234 5.04850958,16.8078159 5.05106283,16.7171055 C5.05386159,16.6157473 5.0492952,16.5141862 5.05032632,16.4127265 C5.05096463,16.3506642 5.06058842,16.2885006 5.05857528,16.2266918 C5.05287957,16.0530796 5.04188095,15.8796703 5.03598883,15.7060075 C5.03412299,15.6524128 5.044336,15.598514 5.0442869,15.5447165 C5.0442869,15.4992853 5.03294457,15.453702 5.0345158,15.4085243 C5.03726545,15.3288168 4.98325437,15.2497178 4.98772256,15.1700611 Z M9.78590502,18.8545322 C9.77648668,18.8499055 9.73577851,18.8828302 9.73169723,18.9030584 C9.71244195,18.9988198 9.78381205,18.9963451 9.84021745,19.0040921 C9.91681997,18.9099446 9.8437755,18.8823998 9.78590502,18.8545322 Z M17.0810432,12.5309942 C17.0908541,12.4704023 17.1014826,12.4219288 17.1056289,12.3730497 C17.108724,12.3366439 17.0987963,12.2992747 17.1031762,12.2630717 C17.1079649,12.2230659 17.1163158,12.1861023 17.0548806,12.1737811 C17.1096,12.1251048 17.1101256,12.0884962 17.0585013,12.0698876 C17.0497416,12.089206 17.0410986,12.1085751 17.0323388,12.1279443 C17.0260902,12.1271837 17.0198415,12.1263724 17.0134761,12.1255612 C17.023579,12.0852511 17.0193744,12.0335325 17.0471136,12.0074704 C17.0844303,11.9724843 17.0659763,11.9445461 17.0605453,11.9134643 C17.057567,11.8961741 17.0433177,11.8804557 17.0350835,11.8636725 C17.0204255,11.8337062 17.0064683,11.803537 16.9922191,11.7734185 L16.9780282,11.7774749 C16.9720132,11.8584499 16.9616767,11.9394757 16.961735,12.0205015 C16.961735,12.0698876 16.9761011,12.1194766 16.9871384,12.1684571 C16.993387,12.1961925 17.0002781,12.2258039 17.0165712,12.2495336 C17.0783568,12.3390777 17.0795832,12.3764976 17.0141769,12.4230443 C17.0335068,12.4542276 17.0528367,12.4854616 17.0810432,12.5309942 Z M17.0794495,11.1135158 C17.06541,11.0675588 17.0512258,11.0216018 17.0334232,10.9635158 C16.9199495,11.0251842 16.9617784,11.0704759 17.0794495,11.1135158 Z M17.0411236,11.0084561 C17.0835315,10.9559399 17.1627026,10.9111347 17.0305578,10.8584561 C16.9484921,10.9219302 16.94965,10.9510698 17.0411236,11.0084561 Z M16.9768988,11.5906289 C16.9726454,11.5927585 16.9717082,11.5997557 16.9720687,11.6044205 C16.9751686,11.6490404 16.9788452,11.6936097 16.9825219,11.7402578 C17.0294531,11.7339704 17.0556221,11.7305225 17.0771773,11.7276324 C17.1279294,11.6509165 17.1353547,11.5763809 17.0667962,11.5027073 C17.0541803,11.5212651 17.0562709,11.5436765 17.0424295,11.5587357 C17.0290926,11.5731865 16.9986702,11.579626 16.9768988,11.5906289 Z M15.2580493,14.8580764 C15.1862341,14.9231303 15.108358,14.9760657 15.1914944,15.042083 C15.3000177,15.0146518 15.3370689,14.9319021 15.2580493,14.8580764 Z M15.1824693,10.8230644 C15.1824693,10.7635881 15.1814975,10.7201343 15.1826189,10.6767313 C15.183815,10.6356099 15.2287457,10.5918013 15.1684145,10.5470292 C15.1316326,10.6111197 15.0968693,10.6669453 15.0674139,10.7240386 C15.0342952,10.7884332 15.1312588,10.8221517 15.1449399,10.8760506 C15.2167841,10.8576449 15.2179803,10.8512561 15.1824693,10.8230644 Z M15.081069,11.2374721 C15.0871855,11.2978612 15.093513,11.3579967 15.0996295,11.4180815 L15.1274704,11.4187407 C15.1521475,11.4004871 15.1753482,11.3817264 15.2019235,11.3641826 C15.2664637,11.3215402 15.1914832,11.2363059 15.081069,11.2374721 Z M15.0981004,11.1043327 C15.0906836,11.095054 15.0597308,11.0846438 15.043216,11.0863411 C15.0001986,11.0906976 14.9682569,11.1506695 14.9949574,11.1709242 C15.0230423,11.1922538 15.0529073,11.212848 15.0853435,11.2361578 C15.1494246,11.1988734 15.1358766,11.151405 15.0981004,11.1043327 Z M15.1365893,11.3777666 C15.1036793,11.3579683 15.0751349,11.3312209 15.0674111,11.3377767 C15.0385309,11.3624262 15.016479,11.3980894 14.9918525,11.4295569 C15.0108821,11.4496174 15.0433443,11.4897384 15.0467025,11.4865917 C15.0758066,11.4595821 15.0996495,11.4248367 15.1365893,11.3777666 Z M15.036794,10.0521341 C15.0590834,10.048855 15.0891887,10.0396326 15.0900571,10.0325108 C15.0949782,9.9907022 15.0925177,9.94879116 15.0925177,9.90247383 C14.9962677,9.92399295 14.9314256,10.0179597 14.981215,10.0419894 C14.992794,10.0476254 15.0239124,10.0540299 15.036794,10.0521341 Z M14.9733414,9.82565654 C15.1507068,9.76765061 15.1674679,9.69113755 15.0102982,9.63145837 C14.997384,9.69970661 14.9862557,9.75781394 14.9733414,9.82565654 Z M15.0304458,9.23166617 C15.0681769,9.26235741 15.1056653,9.29332516 15.1432751,9.32415465 C15.1539514,9.31890119 15.1646277,9.31364774 15.1751827,9.30839428 C15.1717857,9.2637399 15.16851,9.21894728 15.1652343,9.17415465 C15.1220438,9.17844036 15.0789745,9.18272608 15.035784,9.18715004 C15.0340855,9.20194267 15.0322657,9.21673529 15.0304458,9.23166617 Z M15.1234431,10.517215 C15.2072458,10.4698063 15.215351,10.4060707 15.1234431,10.3642903 L15.1234431,10.517215 Z M17.1173851,17.5502309 C17.1062392,17.6207608 17.0996106,17.6920006 17.0919999,17.7630376 C17.0911161,17.7707954 17.0936203,17.7821532 17.0973519,17.7888462 C17.1846535,17.9439512 17.2401376,18.2834684 17.1337849,18.4381171 C17.1028513,18.4122578 17.0744218,18.3814802 17.0471707,18.3491814 C17.047318,18.3143474 17.0398547,18.2799698 17.0304273,18.2472654 C17.0251735,18.2291639 17.0105905,18.2139526 16.9960566,18.190882 C16.9862364,18.2169948 16.9789204,18.236009 16.9725372,18.2531471 C16.9559902,18.2297217 16.9399833,18.2062962 16.9246147,18.1833271 C16.8113878,18.2550739 16.8663318,18.4689454 16.7530558,18.5406415 C16.7091595,18.5070245 16.6729721,18.4627088 16.6483234,18.4123085 C16.6224963,18.4149958 16.5984859,18.4319311 16.5866035,18.4557622 C16.4888925,18.4431875 16.4620343,18.2736824 16.3635377,18.2732261 C16.313602,18.3640378 16.2362188,18.6175095 16.1081143,18.573498 C16.036967,18.5490078 16.0246427,18.4207761 15.929534,18.4801004 C15.9333639,18.5031709 15.9457865,18.5460669 15.9521696,18.5653346 C15.9598785,18.5700501 15.9680292,18.5737516 15.9768674,18.5764896 C15.9838888,18.5792784 15.991254,18.5937798 15.990763,18.602501 C15.9895845,18.6247096 15.9840361,18.6466139 15.9786841,18.678 C15.9628245,18.6417463 15.9513349,18.6131489 15.9375866,18.5857178 C15.9339531,18.5783657 15.9209414,18.5687318 15.916375,18.5706586 C15.9078805,18.5742586 15.9010064,18.584653 15.895949,18.5937291 C15.8721841,18.636473 15.9056219,18.6809915 15.893052,18.7240904 C15.8887802,18.738744 15.882839,18.7527891 15.8776343,18.7670878 C15.8719877,18.7666821 15.866292,18.7663272 15.8606454,18.7659723 C15.8524946,18.7375777 15.8443929,18.7092339 15.8362422,18.6807887 C15.834229,18.6822085 15.8321668,18.6836789 15.8301536,18.6850479 C15.8187622,18.6657295 15.7968141,18.6457519 15.7979434,18.6271941 C15.8015278,18.5683262 15.7490879,18.5639656 15.7219842,18.5358753 C15.7208057,18.5346077 15.6979738,18.5534698 15.6869261,18.5647262 C15.6686114,18.5833347 15.6517206,18.6034644 15.6294779,18.6281575 C15.6096411,18.5822699 15.6390526,18.5259879 15.580917,18.520309 C15.5542552,18.5176724 15.5229779,18.5244668 15.5003423,18.5384105 C15.4908658,18.5442416 15.4984765,18.5797854 15.4986729,18.6017911 C15.498722,18.6145687 15.4996549,18.6273462 15.4932227,18.6403773 C15.4672482,18.588608 15.4417648,18.5364331 15.4148575,18.4852215 C15.4101929,18.476399 15.3983104,18.4719877 15.3911417,18.4641792 C15.3778353,18.4497791 15.3646272,18.4350241 15.3530393,18.4191536 C15.3431209,18.4056662 15.3352648,18.3778802 15.3268685,18.3779816 C15.2863111,18.3786407 15.1527564,18.409469 15.1417087,18.3843703 C15.0662896,18.2131413 15.184181,17.96474 15.1521181,17.7829645 C15.1407758,17.7189754 15.118042,17.6568117 15.1104314,17.5925691 C15.0980088,17.4874587 15.0945717,17.3811821 15.0856845,17.2755647 C15.0767481,17.1681726 15.0657986,17.0609326 15.0556347,16.9536419 C15.0540634,16.9368588 15.0523449,16.9201263 15.0506264,16.9033938 C15.0511665,16.9165263 15.0511665,16.9208361 15.0500862,16.9096305 C15.0492024,16.9013656 15.0486132,16.8905149 15.0481222,16.8785993 C15.0438995,16.8367681 15.0398732,16.7949369 15.0376146,16.7529029 C15.0371727,16.7448409 15.0406589,16.736069 15.0444396,16.7275 C15.0444396,16.7527001 15.0454707,16.7859622 15.0467474,16.8176018 C15.046551,16.7885989 15.0466001,16.7560973 15.0467965,16.7215675 C15.0512156,16.7114266 15.0550945,16.7016914 15.0525904,16.6937308 C15.0501353,16.6860744 15.0483677,16.6845533 15.0470911,16.6875448 C15.0482695,16.558654 15.0506264,16.4164787 15.0452252,16.3618699 C15.0329991,16.2384552 15.0366817,16.1133673 15.0321644,15.9890906 C15.0302003,15.9353945 15.0226388,15.8818506 15.0224915,15.8282053 C15.0224915,15.8130953 15.039775,15.7979854 15.051412,15.7791233 C14.998923,15.7423119 15.0142425,15.6980976 15.0410026,15.6682833 C15.0312806,15.6364409 15.021755,15.6181366 15.0204292,15.5991224 C15.0127204,15.4877754 15.0059445,15.3763776 15.000838,15.2649292 C14.9981374,15.2069232 14.997941,15.1487652 14.9993649,15.0906579 C15.000838,15.0268209 15.0050606,14.9629333 15.0089396,14.899147 C15.0116893,14.8535637 15.0184161,14.8080311 15.0182688,14.7625492 C15.0181706,14.7326842 15.008645,14.70287 15.0040786,14.6728529 C15.0027529,14.6640303 15.0003469,14.6521148 15.0045205,14.6461317 C15.0362398,14.6009033 15.017385,14.571951 14.9875807,14.5550157 C14.9989721,14.4997985 15.009136,14.449094 15.0202328,14.3986431 C15.0217059,14.3921022 15.027598,14.3840909 15.0329009,14.3803388 C15.057746,14.3630992 15.0621651,14.3481414 15.0398732,14.3212173 C15.0274507,14.3062595 15.0303476,14.2781692 15.0249465,14.2563156 C15.0077612,14.1878139 14.987728,14.120022 15.0171395,14.0488836 C15.0226388,14.0354976 15.0157647,14.0166355 15.0147335,14.0002073 C15.0126222,13.965424 15.0114438,13.9305393 15.0083013,13.8958574 C15.0064846,13.8751193 15.0019182,13.8546347 14.9983338,13.8340487 C14.9947985,13.813412 14.9891028,13.792978 14.9875316,13.7721385 C14.9831616,13.7131692 14.9796263,13.6540985 14.9777605,13.594977 C14.9772204,13.5794108 14.9863532,13.5636417 14.9869424,13.5478726 C14.9883172,13.5078667 14.9890537,13.4677595 14.9869915,13.4279058 C14.9835053,13.36199 14.9757964,13.2962262 14.9733905,13.230209 C14.9710337,13.1663214 14.9746671,13.1021802 14.9729486,13.0382418 C14.9706408,12.9465174 14.9683331,12.8546409 14.9611644,12.7632207 C14.9574327,12.715305 14.9431934,12.6683019 14.934257,12.6207411 C14.9324894,12.6113608 14.9292487,12.5972649 14.933766,12.592448 C14.9771713,12.5462055 14.9674493,12.4940813 14.9564507,12.4388134 C14.9519334,12.4159964 14.9626865,12.3899343 14.9752563,12.366306 C14.9584147,12.4185316 14.9702971,12.4651798 14.9876298,12.5111687 C14.9939147,12.5117265 15.0001505,12.5122335 15.0064355,12.5127913 C15.0118857,12.4689826 15.0164521,12.4250725 15.0231789,12.3814667 C15.0306914,12.332689 15.0408062,12.2843676 15.0486132,12.2356406 C15.0578442,12.1786487 15.0745876,12.1208456 15.0710524,12.064513 C15.068941,12.0308959 15.0342266,11.9994591 15.0051097,11.952456 C14.9968608,11.9829294 14.9885627,12.0027042 14.9865496,12.0231888 C14.9829161,12.0603045 15.0004942,12.1008681 14.9603787,12.1306823 C14.9521789,12.1367668 14.9516388,12.1681529 14.9591512,12.1800178 C14.9884154,12.2263617 14.987237,12.2732633 14.9690205,12.3274664 C14.9483981,12.2316856 14.9241913,12.1404176 14.9105412,12.0474762 C14.9042563,12.0046817 14.9194776,11.9587434 14.9233566,11.9140728 C14.9275793,11.8661063 14.929887,11.8178864 14.9333241,11.7697678 C14.9339133,11.7619086 14.9337169,11.7518691 14.938136,11.7467987 C14.9753054,11.7045111 14.9567944,11.661818 14.9485454,11.6140543 C14.9401982,11.5656823 14.9534555,11.5133552 14.9576291,11.4627522 C14.9584147,11.4533718 14.9648469,11.4426732 14.9621464,11.4350675 C14.9433898,11.3818278 14.9350426,11.3309712 14.9606733,11.2754498 C14.968775,11.2578553 14.9526699,11.2281932 14.9470724,11.2041593 C14.9430952,11.1872747 14.9342079,11.170745 14.9340606,11.1539619 C14.9315565,10.9663046 14.9286104,10.7786473 14.9295433,10.5910407 C14.9299852,10.4950571 14.938627,10.3990735 14.9416713,10.3030392 C14.9423096,10.28078 14.9339624,10.2584193 14.9317038,10.2358558 C14.929887,10.2176529 14.930869,10.1991458 14.9308199,10.1807907 C14.9306726,10.1271961 14.9299852,10.0736015 14.9310163,10.0200068 C14.931311,10.0036293 14.9367612,9.98740384 14.9394617,9.971077 C14.9441263,9.94278389 14.960035,9.90926823 14.9507058,9.88716108 C14.9218345,9.81876073 14.9383815,9.74853502 14.930869,9.67972904 C14.9280212,9.65412328 14.9209015,9.62892315 14.9152549,9.60362161 C14.9003773,9.53679311 14.8767598,9.47047164 14.8725862,9.40293327 C14.868118,9.33007093 14.8704257,9.25234096 14.8914901,9.1838392 C14.9059257,9.13708967 14.9082826,9.09865567 14.9008192,9.05302164 C14.891932,8.99917348 14.8876602,8.94390559 14.8876111,8.88924616 C14.887562,8.85851925 14.9047964,8.82789374 14.9056311,8.79696401 C14.9067605,8.75741451 14.8996899,8.71756079 14.8951726,8.67801129 C14.8921775,8.65179707 14.8869728,8.62593779 14.883683,8.59982498 C14.8801477,8.5718361 14.8782328,8.54364441 14.8745502,8.51565554 C14.8732736,8.5062245 14.8661048,8.49719911 14.8660557,8.48797089 C14.8651719,8.3398631 14.8650737,8.19175531 14.86473,8.04364751 C14.8645827,7.98538806 14.8675288,7.89153407 14.8732736,7.83165207 C14.8749921,7.77749969 14.8767598,7.72329659 14.8784783,7.6690935 L14.8901152,7.30082685 C14.8933068,7.19916436 14.8965475,7.09745117 14.8997881,6.99573798 L15.1309065,6.67011379 L15.5329454,7.86567478 L16.7998982,6.70494777 L15.1539839,11.7081111 L16.9775946,10.3506508 C16.9824556,10.3594226 16.9899681,10.3678903 17.0004266,10.3764086 L17.0004266,10.333614 L17.0363685,10.3069435 C17.0357793,10.3217999 17.0354356,10.3366563 17.0348464,10.351462 C17.0309674,10.4381667 17.021049,10.5246685 17.0180047,10.6113225 C17.0163844,10.6566523 17.0237005,10.7022356 17.0269411,10.7477176 C17.0295435,10.7855431 17.034159,10.8233179 17.0339626,10.8610928 C17.0338153,10.8825915 17.0257136,10.9039888 17.0211472,10.9253861 C17.0170718,10.9444509 17.0034709,10.9637186 17.040002,10.9812117 C17.1184654,11.0189358 17.1323609,11.129573 17.0587095,11.1765254 C17.0032744,11.2119171 17.0384799,11.241275 17.0405912,11.2729146 C17.0425552,11.3023232 17.0413768,11.3320867 17.0398547,11.3615967 C17.0388727,11.3812701 17.0348955,11.4007406 17.032244,11.4203632 C17.0368104,11.4209717 17.0413277,11.4215801 17.045845,11.4221886 C17.0513934,11.4029209 17.0569418,11.3836025 17.0624411,11.3643348 C17.0661728,11.3642334 17.0699536,11.3641826 17.0737344,11.3641319 C17.0758948,11.3801039 17.0799702,11.3961265 17.0799211,11.4120984 C17.079872,11.4467802 17.0759439,11.4815128 17.0766804,11.516144 C17.0795774,11.6485841 17.0838001,11.7810242 17.0873844,11.9134643 C17.0908215,12.0396171 17.0931784,12.1658712 17.0977938,12.2919733 C17.1014764,12.3935343 17.1083997,12.4949433 17.1126223,12.5965044 C17.1156666,12.6702287 17.1324591,12.748415 17.1146355,12.8167139 C17.0924909,12.9013904 17.0981376,12.9861683 17.0879245,13.0701857 C17.0796265,13.138079 17.0610172,13.2147948 17.1135553,13.2788346 C17.1183672,13.2847163 17.1103637,13.3032742 17.1061901,13.3151897 C17.0992178,13.3350152 17.0840947,13.3540801 17.083751,13.3737027 C17.0812959,13.5251063 17.0806085,13.6766113 17.0817378,13.8280148 C17.0819833,13.8599587 17.0917544,13.8918011 17.0971064,13.9236942 C17.0922454,13.9219703 17.0873353,13.920297 17.0824252,13.9185731 C17.0716721,13.9346971 17.0526209,13.9502126 17.0513443,13.9670972 C17.0425552,14.0830584 17.0339626,14.1992224 17.0329805,14.315437 C17.0325386,14.3627443 17.0543886,14.4097474 17.0602807,14.4576631 C17.0674985,14.5161254 17.0590041,14.5782891 17.0742254,14.6338612 C17.1084979,14.7586956 17.0640124,14.883023 17.082327,15.0069955 C17.0906251,15.0632267 17.0986777,15.1217904 17.0924418,15.1775653 C17.0743236,15.3395155 17.130446,15.4960909 17.1174833,15.6576354 C17.1122295,15.7237033 17.1220006,15.7913431 17.1278928,15.8579688 C17.1403153,15.9992315 17.155733,16.1402406 17.1678119,16.2816047 C17.1721818,16.3327656 17.1696286,16.648908 17.1715926,16.7003224 C17.1724274,16.7243056 17.1738022,16.6750715 17.175177,16.60155 C17.1739004,16.6710152 17.1728693,16.7309479 17.1727711,16.7585818 C17.1725256,16.8140018 17.1804308,16.8693204 17.1824931,16.9248418 C17.1851445,16.997552 17.1961922,17.0723411 17.1837206,17.1425161 C17.174195,17.1962629 17.1814619,17.2395645 17.2000221,17.2854014 C17.2029682,17.2927535 17.204834,17.3052268 17.2038029,17.313086 C17.1972725,17.3642468 17.1920186,17.4157119 17.1818056,17.4661122 C17.1786141,17.4817798 17.1616251,17.4946588 17.1505283,17.5085518 C17.1393333,17.5225462 17.1197911,17.5348674 17.1173851,17.5502309 Z M10.3404177,17.6520962 C10.3343782,17.6190876 10.328437,17.5864339 10.3217593,17.5499774 C10.2816438,17.5669127 10.2430013,17.5809578 10.252085,17.6315609 C10.2585663,17.6678146 10.248697,17.7176064 10.295834,17.7257191 C10.3008423,17.7470657 10.3051141,17.7651672 10.3093367,17.7833194 L10.3284861,17.7846377 C10.3338872,17.7588798 10.3392883,17.733122 10.3446895,17.7073641 C10.3483229,17.7068063 10.3519564,17.7062486 10.3555899,17.7057415 C10.3574066,17.7406262 10.3557863,17.7761194 10.3619239,17.8101928 C10.3684543,17.8465479 10.3823008,17.8814326 10.395018,17.9237201 C10.437834,17.8573479 10.3932012,17.6681695 10.3404177,17.6520962 Z M10.2731002,17.434574 C10.2790905,17.4481628 10.2871922,17.4662643 10.2985836,17.4707263 C10.3199917,17.4790925 10.3444931,17.4790925 10.3759668,17.483808 C10.3987987,17.3808272 10.354657,17.281345 10.3347711,17.1768938 C10.3174875,17.1793276 10.3011369,17.1771473 10.2906784,17.1842459 C10.2800726,17.1915474 10.2781085,17.2123869 10.2674536,17.2195363 C10.2347032,17.2414913 10.2095144,17.293869 10.2329847,17.31481 C10.2720691,17.3494918 10.2562586,17.3964949 10.2731002,17.434574 Z M10.13494,16.6211727 C10.1020848,16.6254825 10.0522953,16.6264459 10.0407163,16.6344065 C9.96907161,16.6834885 10.0127821,16.7306943 10.0627163,16.7770889 C10.0779137,16.7773932 10.0929663,16.7776974 10.108019,16.7779509 C10.1165584,16.7280577 10.1250979,16.6782152 10.13494,16.6211727 Z M9.89158595,18.8033576 C9.87580963,18.7386688 9.86582279,18.6974911 9.85569121,18.6562461 C9.83919121,18.6552385 9.82254648,18.6543652 9.80590174,18.6533576 C9.79432279,18.6827799 9.76913858,18.7130755 9.77623069,18.741423 C9.78071753,18.7590898 9.8344149,18.7741368 9.89158595,18.8033576 Z M9.50920191,18.5647599 C9.51325454,18.5527091 9.47432033,18.532836 9.45478086,18.5165569 C9.43118875,18.5409755 9.40035981,18.5635971 9.38689928,18.5907641 C9.38024139,18.604189 9.40571507,18.6260707 9.4301756,18.6665569 C9.46910981,18.6190939 9.49921507,18.5937239 9.50920191,18.5647599 Z M9.07516189,17.7889983 C9.04564925,17.7358093 9.01627919,17.682671 8.98348737,17.6237017 C8.89124256,17.6543272 8.92873929,17.7503615 9.02340784,17.792649 C9.04065919,17.7914828 9.05791054,17.7902152 9.07516189,17.7889983 Z M8.92212191,17.5427266 C8.93002467,17.5242702 8.94482985,17.5056616 8.94432967,17.4874587 C8.94347937,17.4565797 8.93312576,17.4260049 8.92657347,17.395278 C8.92092149,17.3688103 8.91566966,17.3421904 8.90916738,17.3158748 C8.89341188,17.2517336 8.87395508,17.1883023 8.86225099,17.1234513 C8.85589877,17.0882116 8.86420167,17.0504368 8.86230101,17.014031 C8.86150073,16.9987182 8.85119712,16.9840139 8.84524504,16.9690054 C8.83369101,16.9787914 8.81353396,16.9875125 8.81233354,16.998414 C8.80948255,17.0244761 8.81558468,17.0515016 8.81808555,17.0781722 C8.82188688,17.0778172 8.82563819,17.0774623 8.82943952,17.0771581 C8.81933599,17.1333386 8.80888234,17.1895699 8.79972914,17.2459026 C8.79857874,17.2528998 8.80578125,17.2608604 8.80708171,17.2686689 C8.81098307,17.2913845 8.81383407,17.3142015 8.81848569,17.3469566 C8.83614186,17.3557285 8.84904637,17.395785 8.83634193,17.4318359 C8.83003973,17.4497853 8.82818908,17.4693065 8.82433774,17.4881179 C8.83669206,17.4730587 8.84904637,17.4579487 8.85995018,17.4446642 C8.87455529,17.4744784 8.89151121,17.5089067 8.90846714,17.5432844 C8.91301873,17.5430816 8.91757032,17.5429294 8.92212191,17.5427266 Z M8.69359081,17.7326339 C8.67625966,17.6964408 8.63553144,17.6637063 8.60375766,17.6296848 L8.54916452,17.6386124 C8.55378617,17.6832505 8.55855223,17.7278081 8.5633183,17.7724462 C8.57776093,17.7748591 8.59205913,17.7772719 8.60650176,17.7796848 C8.63740899,17.7636794 8.69879016,17.7432505 8.69359081,17.7326339 Z M10.5870519,18.3226123 C10.5607338,18.3337165 10.5406515,18.3421842 10.5164447,18.3524265 C10.5201273,18.3553167 10.5158064,18.3537448 10.5154136,18.3514124 C10.5033347,18.2784487 10.4654779,18.2458457 10.3920719,18.2636937 C10.3777835,18.267243 10.361482,18.2620711 10.3434619,18.2607021 C10.3415961,18.272212 10.3366369,18.2826064 10.3390919,18.290567 C10.3583886,18.3519195 10.3618257,18.4114465 10.3247054,18.4675257 C10.3077164,18.4930807 10.29441,18.5254302 10.2709889,18.5411486 C10.2435414,18.5596557 10.2385822,18.5816108 10.2351452,18.6096503 C10.2337212,18.6210081 10.2270435,18.6317068 10.2227717,18.6427097 L10.2110857,18.639566 C10.2019038,18.5888615 10.1927219,18.5381063 10.18354,18.4873004 C10.1799556,18.4858807 10.1763713,18.4845117 10.1727869,18.483092 C10.1585476,18.5177231 10.1449466,18.5526585 10.1297744,18.5868333 C10.1238823,18.6001179 10.1172537,18.6178138 10.1063042,18.6230363 C10.054208,18.6479829 10.0244037,18.7109579 10.034764,18.7692173 C10.0393304,18.794671 10.0316707,18.8224063 10.0295593,18.8490769 C10.0231271,18.8495839 10.0166458,18.850091 10.0102135,18.850598 C10.0052543,18.8368064 9.99646525,18.8232176 9.99602334,18.8092232 C9.99435391,18.7632849 9.99543413,18.7171945 9.99617064,18.6712056 C9.99626884,18.663245 9.99690716,18.6518872 10.0017191,18.6480843 C10.0722772,18.59307 10.0204265,18.5346077 10.0136506,18.4775652 C10.0068256,18.4763483 10.0000005,18.4750806 9.99317548,18.4739144 C9.98310978,18.5229964 9.97289677,18.5719769 9.96302748,18.6211096 C9.95546592,18.658783 9.94829718,18.6965578 9.9396063,18.7411271 C9.89251846,18.7071551 9.91215885,18.6695323 9.90719965,18.6379434 C9.90445,18.6207546 9.90160214,18.6036165 9.89880338,18.5864277 C9.87857378,18.592715 9.85598732,18.5951996 9.83899838,18.6066081 C9.82829436,18.6137574 9.81891608,18.635611 9.82122382,18.6485407 C9.82804886,18.6865183 9.84096242,18.7233298 9.85240295,18.7638427 C9.81935798,18.7846822 9.78655852,18.8054203 9.74629571,18.8308233 C9.74403707,18.8029358 9.73524799,18.7802709 9.74226943,18.7658201 C9.76627982,18.7163833 9.73215463,18.6818028 9.71727703,18.6433181 C9.71192502,18.629273 9.69356125,18.6166983 9.67843815,18.6112729 C9.64686621,18.5998137 9.61210271,18.5833347 9.5814146,18.5880502 C9.5518558,18.5926136 9.52573408,18.621211 9.49264001,18.6428111 C9.43823612,18.5644219 9.33129416,18.6405801 9.2635839,18.6609126 C9.25754448,18.5996616 9.25165236,18.5399824 9.24576024,18.4802018 C9.24242137,18.4795933 9.23908251,18.4789849 9.23579274,18.4783764 C9.21639785,18.5217795 9.19700296,18.5652332 9.17299258,18.6189293 C9.16503822,18.6167997 9.14795107,18.6104109 9.13037292,18.608332 C9.11853958,18.6069123 9.10420209,18.6082813 9.09418549,18.6142644 C9.07660734,18.6247603 9.06148423,18.6397181 9.03600082,18.6604562 L9.03600082,18.5628501 C8.99770205,18.5967207 8.97329886,18.5933742 8.94207063,18.5667036 C8.92095721,18.5486528 8.88481888,18.5492613 8.8510374,18.5403373 C8.82658511,18.5110808 8.79746822,18.4762976 8.76319573,18.4352269 C8.68924964,18.4493735 8.72028147,18.3517166 8.67093497,18.3235757 C8.65885613,18.3455814 8.647121,18.3668266 8.63317632,18.3921788 C8.62099927,18.3112038 8.57209469,18.2436147 8.58795431,18.1635016 C8.59335541,18.1588368 8.59875652,18.1542227 8.60410853,18.1495579 C8.61623647,18.1677608 8.6274315,18.1866735 8.64098337,18.2036088 C8.64599167,18.2098455 8.65792321,18.2157272 8.66430634,18.2137497 C8.67122958,18.2115694 8.68046057,18.1995525 8.67982225,18.1925553 C8.67653249,18.1526001 8.66975655,18.1129999 8.66573027,18.0730448 C8.6622932,18.0391235 8.66170399,18.004898 8.65831602,17.9709767 C8.65630288,17.9509991 8.65114728,17.9313765 8.6473665,17.9116017 C8.63450204,17.9162158 8.61481255,17.9170778 8.61009885,17.9262046 C8.59900203,17.9478047 8.58859262,17.9735626 8.58942733,17.9971909 C8.59094947,18.0409489 8.60072056,18.0844026 8.60700549,18.1280592 C8.60126067,18.1292254 8.59551586,18.1303916 8.58982014,18.1315578 C8.58299511,18.1005266 8.57572816,18.0695462 8.56954143,18.0384136 C8.56153797,17.9976472 8.55215968,17.9569822 8.54729869,17.9157595 C8.53649647,17.8236295 8.528002,17.7311445 8.51886921,17.6387609 C8.51837821,17.6341468 8.51911472,17.6273524 8.52196258,17.6248679 C8.57671018,17.577662 8.53575995,17.5356787 8.51553035,17.4926813 C8.51346811,17.4883207 8.5079688,17.4848728 8.50752689,17.4806136 C8.50197848,17.4215429 8.49706838,17.3624215 8.49196187,17.3033001 L8.5032551,17.2991423 C8.51960573,17.3276382 8.53595636,17.3561848 8.55456563,17.3886864 C8.56227449,17.3675426 8.56870672,17.3497961 8.58034365,17.3177508 C8.59988585,17.3967991 8.61599097,17.4619037 8.63209609,17.5270589 C8.63626968,17.5272618 8.64039416,17.5275153 8.64456774,17.5277181 C8.647121,17.5020109 8.6521784,17.476253 8.65168739,17.4505966 C8.65085267,17.407295 8.63538586,17.3629792 8.66681049,17.3232269 C8.67172059,17.3169903 8.67132778,17.3032494 8.66882363,17.2943254 C8.65576277,17.2478801 8.63995225,17.202246 8.62782431,17.1555472 C8.62350342,17.1388147 8.627677,17.1199019 8.62620397,17.1021047 C8.62428904,17.078375 8.62149028,17.054696 8.61869152,17.031017 L10.4323347,15.5729082 C10.4393562,15.6219394 10.4357227,15.6737087 10.4381286,15.7240076 C10.44024,15.767512 10.444119,15.810915 10.4450519,15.8545209 C10.445592,15.8790112 10.4418603,15.9036028 10.4400436,15.9281945 C10.4359682,15.9278903 10.4319419,15.927586 10.4279156,15.9272818 C10.4379322,16.0194119 10.4493237,16.1114405 10.4636611,16.203672 C10.4658216,16.2164495 10.4692096,16.2291256 10.4697988,16.2419538 C10.4737269,16.3355036 10.4787843,16.4290534 10.4798645,16.5226031 C10.4804537,16.572902 10.4732849,16.6233022 10.4707808,16.6736518 C10.4700443,16.6880519 10.4720574,16.7029083 10.4749544,16.7170548 C10.4873278,16.7782044 10.5024509,16.8386949 10.5124675,16.9001487 C10.5174758,16.9308756 10.4482925,16.9632251 10.449962,16.9947126 C10.4543811,17.0784257 10.4590457,17.1621895 10.465527,17.2457505 C10.4690132,17.2908775 10.4776549,17.3355481 10.4817794,17.3805737 C10.4869841,17.4376162 10.4886045,17.4950137 10.4943002,17.5519548 C10.4991121,17.6001241 10.509276,17.6477863 10.5138424,17.6960063 C10.5202255,17.763139 10.5201273,17.831083 10.5294074,17.8977594 C10.5361833,17.9461315 10.5561674,17.9924247 10.5655457,18.0405939 C10.5728617,18.0781153 10.5737947,18.1170563 10.5758569,18.1554903 C10.5770844,18.1782059 10.5732055,18.2012764 10.574924,18.2239413 C10.5775263,18.2576091 10.5830257,18.2910741 10.5870519,18.3226123 Z M15.0522554,16.6875448 C15.0466107,16.7010448 15.0444396,16.7454448 15.0444396,16.8057448 C15.0469002,16.7997448 15.0489265,16.7938948 15.051387,16.7881948 C15.0515317,16.7553448 15.0518212,16.7215948 15.0522554,16.6875448 Z M8.4758359,11.7954243 C8.47915821,11.8240723 8.48750451,11.8525175 8.48880102,11.8811655 C8.49106992,11.9293348 8.48944928,11.9775548 8.48944928,12.0257747 L8.52186209,12.0299832 C8.52810155,12.0116789 8.53425999,11.9933746 8.54049945,11.9750702 C8.56278326,11.9093065 8.58749803,11.8437963 8.60629746,11.7776777 C8.61383344,11.7509057 8.61658852,11.721345 8.60548714,11.69579 C8.5998149,11.682911 8.55702999,11.6679025 8.53304451,11.6691194 C8.51011244,11.6702856 8.47486351,11.6897054 8.47121707,11.7037506 C8.46360006,11.7334127 8.47218945,11.7648495 8.4758359,11.7954243 Z M8.58112123,11.7058456 C8.56402264,11.6529044 8.72139546,11.6091738 8.7042311,11.5558456 C8.66543045,11.6430747 8.50476944,11.6821614 8.58112123,11.7058456 Z M8.68134445,12.735891 C8.68545214,12.7948603 8.6906118,12.8537282 8.69607203,12.9198976 C8.70714276,12.9104665 8.7116512,12.9083369 8.71155101,12.9064609 C8.70854538,12.8390746 8.84034217,12.7890293 8.80342304,12.7138346 C8.80106863,12.7090176 8.81374236,12.6980148 8.81654762,12.6889387 C8.82661647,12.656792 8.83453129,12.6243918 8.8086328,12.5997495 C8.78508871,12.6390961 8.76269678,12.6758569 8.74095607,12.713074 C8.73699866,12.7198684 8.68084351,12.7284374 8.68134445,12.735891 Z M8.68168809,12.3054099 C8.69556895,12.3609162 8.70684714,12.4060884 8.71812534,12.451339 C8.73345212,12.4526699 8.74892349,12.4540791 8.76439486,12.4554099 C8.7859391,12.4174402 8.80748335,12.3795488 8.82642493,12.3462763 C8.77711898,12.3323411 8.73995877,12.3218505 8.68168809,12.3054099 Z M8.34014162,7.67046252 C8.34377509,7.59116071 8.34220386,7.51150397 8.34077993,7.43205005 C8.33861949,7.31198183 8.32467481,7.19100094 8.33513332,7.07225104 C8.34141824,7.00116336 8.38344869,6.93296583 8.41261468,6.86492041 C8.41727927,6.85412036 8.4386873,6.84605835 8.45277928,6.84529778 C8.54842801,6.84002451 8.64496055,6.82795685 8.73962726,6.8365259 C8.80174001,6.8421034 8.8610049,6.86978804 8.92247934,6.83459913 C8.92915707,6.8307963 8.94162872,6.83399068 8.94987769,6.83769211 C8.96485349,6.84448651 8.98665433,6.86461619 8.99156443,6.86066124 C9.01537841,6.84139353 9.03727745,6.81796806 9.05446279,6.79215948 C9.07179544,6.76624949 9.08279406,6.7358268 9.09899739,6.70226044 C9.10847388,6.74688038 9.11633004,6.78379324 9.12413709,6.82075681 L9.13876919,6.81877934 C9.17073393,6.76051989 9.20274778,6.70226044 9.23756038,6.63893054 C9.23986812,6.67457579 9.24193037,6.70682384 9.24404171,6.73907189 C9.24757698,6.73983246 9.25106315,6.74064373 9.25459842,6.7414043 L9.30271739,6.64633339 C9.30733288,6.64810805 9.31189927,6.64993341 9.31651477,6.65175877 C9.31278309,6.69764633 9.30900231,6.74353388 9.30512334,6.79104398 C9.30748018,6.76275088 9.42684469,6.71397317 9.46028246,6.73983246 C9.4822797,6.75691987 9.50093808,6.78171436 9.52804182,6.7867341 C9.58774862,6.79783838 9.63439456,6.7063675 9.69282474,6.72325209 C9.72950318,6.73384933 9.74442988,6.78186647 9.77899697,6.79844684 C9.83939119,6.8274498 9.90651224,6.74388881 9.97014712,6.76427202 C9.98959111,6.77045796 10.0049597,6.78566931 10.0229798,6.79540457 C10.0710988,6.82136526 10.132475,6.80432856 10.1745545,6.76888612 C10.216585,6.73344369 10.2435414,6.68284062 10.2694667,6.63360657 C10.33428,6.75910016 10.3256383,6.90943895 10.3228395,7.05161432 C10.3178312,7.30736773 10.3291244,7.54567879 10.4162787,7.78307718 C10.4924834,7.99066133 10.4620408,8.2482908 10.4602241,8.47012291 C10.4594385,8.57158258 10.4506003,8.67294084 10.4464758,8.77434981 C10.4432842,8.8534488 10.4416639,8.9326492 10.4396508,9.0118496 C10.4355263,9.17603071 10.4332676,9.34036394 10.4269827,9.50449435 C10.4240367,9.58060178 10.4077842,9.65645568 10.4082261,9.732411 C10.4086189,9.79873246 10.4239385,9.86495251 10.4326293,9.93122327 C10.4389143,9.93167961 10.4452483,9.93208525 10.4515332,9.93254159 C10.460175,9.88229345 10.4688168,9.83204531 10.4774585,9.78184787 C10.4788334,9.78179716 10.4802573,9.78174646 10.4816812,9.78169575 C10.4776549,9.86312715 10.4736287,9.94455855 10.4694551,10.0282209 C10.439749,10.0321252 10.4260007,10.0432295 10.4542829,10.0740578 C10.464054,10.084655 10.4711245,10.1021481 10.4716646,10.1168017 C10.4736778,10.1717146 10.4781459,10.2274896 10.47137,10.2815405 C10.458702,10.3830509 10.5255775,10.4786289 10.5505699,10.5763871 L8.42705037,13.2714824 C8.42606835,13.1721017 8.42508633,13.0727209 8.42498813,12.9729852 C8.42425161,12.2285927 8.38084634,11.4474901 8.45037334,10.7118188 C8.45803309,10.6306409 8.41467692,10.5494123 8.42233667,10.4682344 C8.4235642,10.4551527 8.42331869,10.4419188 8.42523363,10.4289385 C8.43903101,10.335845 8.45597085,10.243208 8.46657666,10.1497596 C8.483271,10.0028687 8.31735876,9.85557219 8.33041962,9.70827566 C8.33390579,9.6690811 8.32860289,9.62907526 8.33194175,9.58982999 C8.33950331,9.50064081 8.35143485,9.41185726 8.35850539,9.32261737 C8.36159875,9.28352422 8.35560843,9.24382261 8.35649225,9.20442522 C8.35732696,9.16857716 8.36508492,9.13267838 8.3639556,9.09698243 C8.36154965,9.01854259 8.35634494,8.94020417 8.35060013,8.86196715 C8.34534632,8.79027101 8.33523152,8.7188284 8.33199085,8.64708156 C8.32624604,8.52270346 8.32320178,8.39812255 8.32079583,8.27364304 C8.31878269,8.16772138 8.32565683,8.06119126 8.31676955,7.95592876 C8.30847148,7.8580184 8.33577163,7.76568554 8.34014162,7.67046252 Z M13.6383062,15.8686674 C13.5044542,16.0603811 13.5000605,16.1024658 13.5194917,16.3455431 C13.538799,16.5873021 13.5452348,16.8333202 13.5598391,17.0768031 C13.5635521,17.137902 13.5770425,17.1964657 13.5860773,17.2561449 L13.6152859,17.246511 C13.6428855,16.8013257 13.6771685,16.3565967 13.6383062,15.8686674 Z M13.4560421,18.2018849 C13.3342114,18.2802233 13.3238281,18.3680942 13.4200467,18.3989225 C13.5645822,18.3402067 13.472517,18.2772825 13.4560421,18.2018849 Z M13.2947383,18.3959309 C13.2916086,18.3884267 13.2541835,18.3831027 13.2326673,18.3767647 C13.2159759,18.3865506 13.1923733,18.395576 13.1845493,18.4063254 C13.1748996,18.4198635 13.1713787,18.4353283 13.1771164,18.4491707 C13.1958942,18.4932836 13.1086558,18.541757 13.2253648,18.5934249 C13.3142984,18.5236555 13.3205577,18.4603256 13.2947383,18.3959309 Z M12.7909674,18.1245362 C12.7764733,18.1198659 12.7618531,18.1152872 12.747233,18.1106168 C12.6895086,18.1477047 12.6269949,18.183419 12.6518239,18.246789 C12.6649316,18.2513677 12.6780394,18.2560381 12.6911471,18.2606168 C12.7244205,18.2151956 12.75782,18.1698659 12.7909674,18.1245362 Z M12.1634605,13.2315273 L12.1152839,13.2269132 C12.1025207,13.2500852 12.0705228,13.2765022 12.0805895,13.2958713 C12.1176208,13.3664012 11.980731,13.4198945 12.0292671,13.4894103 C12.0307052,13.4915906 12.0224361,13.495647 12.0233349,13.4983343 C12.028548,13.5134949 12.0329522,13.5289598 12.0427493,13.5432078 C12.0451761,13.5466557 12.075646,13.5489374 12.0788818,13.5463007 C12.0941617,13.5335232 12.109891,13.5195795 12.1157333,13.5048245 C12.1297548,13.4694327 12.1424282,13.433534 12.1480907,13.3974831 C12.1566295,13.3423166 12.1586069,13.2868966 12.1634605,13.2315273 Z M12.1419852,17.5054081 C12.1223141,17.5043433 12.1025628,17.5031771 12.0828114,17.5021123 C12.0791983,17.593786 11.932428,17.6768907 12.0315863,17.7776912 C12.0709284,17.7646601 12.1091466,17.7487389 12.1118764,17.7319558 C12.1202266,17.6802879 12.1124385,17.6281637 12.1163727,17.576293 C12.1182193,17.552614 12.1329927,17.5290364 12.1419852,17.5054081 Z M11.9850146,17.0163634 C11.9938594,17.1103188 12.0051712,17.2042235 12.016182,17.3053789 C12.0862786,17.2845901 12.1044495,17.2642069 12.0803219,17.2293729 C12.0573374,17.1962629 12.033631,17.1605669 12.0340521,17.1260372 C12.0351352,17.0475467 12.0554722,16.9692082 12.0591425,16.8907177 C12.0631136,16.8068018 12.0310437,16.719945 12.0615492,16.6394263 C12.0993352,16.5395384 12.098914,16.4402591 12.1100452,16.3404726 C12.1179273,16.2698413 12.0587213,16.2000719 12.1087215,16.1278688 C12.1206349,16.1107306 12.0830896,16.0840094 12.068228,16.0616994 C12.0578188,16.0625614 12.0472893,16.0635248 12.0367597,16.0643867 C12.0275539,16.0859868 12.0110075,16.1074856 12.0102855,16.1291871 C12.0063144,16.2406355 12.0064949,16.352084 12.0049907,16.4635324 C12.004389,16.5074425 12.0076381,16.5515554 12.0010797,16.595212 C11.9932578,16.6476911 11.9670844,16.6998153 11.9663623,16.7521423 C11.9652191,16.8401653 11.9767114,16.9282897 11.9850146,17.0163634 Z M12.0312593,13.0364904 C12.0610995,13.0592845 12.0908223,13.0822887 12.120545,13.1051879 C12.1389896,13.0672677 12.1575516,13.0293476 12.1759961,12.9914274 C12.1591963,12.9793476 12.142514,12.9671627 12.1258317,12.9551879 C12.0942292,12.9822887 12.0628617,13.0093896 12.0312593,13.0364904 Z M13.8155401,13.2544964 C13.8129377,13.3227954 13.7987967,13.3905873 13.7961943,13.4588355 C13.7941812,13.5106555 13.8053271,13.5629318 13.8048361,13.6149546 C13.8040996,13.6906057 13.7979128,13.7662061 13.7945249,13.8418572 C13.7938375,13.8582347 13.7905968,13.876894 13.7966362,13.8906856 C13.8173568,13.9380436 13.8094025,13.9820551 13.7931992,14.0282976 C13.7876998,14.0440159 13.7901549,14.0666808 13.7971272,14.0822978 C13.8190754,14.1310755 13.8186826,14.1784335 13.8064073,14.2302028 C13.7898112,14.3002764 13.7740498,14.3701472 13.8014481,14.4445306 C13.8140671,14.4787562 13.8027247,14.522362 13.8024792,14.5617594 C13.8020373,14.6135287 13.8026756,14.6653487 13.8012026,14.7170672 C13.800417,14.7458674 13.7956542,14.7745154 13.7939848,14.8032649 C13.789713,14.8782061 13.7869633,14.9531473 13.7818568,15.0279871 C13.7804329,15.0485224 13.776112,15.0704268 13.7671756,15.0885283 C13.7549004,15.1134749 13.743509,15.1347201 13.7717911,15.1557624 C13.7762593,15.1591596 13.7806293,15.1669174 13.7802856,15.1723428 C13.7753264,15.2552953 13.7669792,15.3381464 13.7653589,15.4211497 C13.7647206,15.4518766 13.7796964,15.4829584 13.7872088,15.5139389 C13.7899094,15.5248403 13.7968817,15.5393418 13.7927081,15.5465419 C13.7463077,15.6263507 13.7904495,15.7123962 13.7755719,15.7962614 C13.7602033,15.8825098 13.7776832,15.974944 13.7794018,16.0646403 C13.7797946,16.0838573 13.7711528,16.1032771 13.7719875,16.1223927 C13.7742462,16.1745169 13.7496466,16.2271481 13.7801874,16.2798808 C13.7887801,16.2947879 13.773657,16.3234359 13.7716438,16.345898 C13.7629529,16.4419323 13.7613326,16.5371553 13.7769467,16.6334938 C13.7831825,16.671725 13.7619709,16.7143168 13.755686,16.755286 C13.7525926,16.7755678 13.7541148,16.796813 13.7550968,16.8175004 C13.7571099,16.863388 13.7587794,16.9093262 13.7631002,16.9550617 C13.7671265,16.9976534 13.7762102,17.0396875 13.7798437,17.0822792 C13.7857358,17.1519979 13.7899585,17.2218687 13.7930027,17.2916887 C13.7955069,17.3477679 13.7945249,17.4039485 13.7966362,17.4600276 C13.7975691,17.4842137 13.8039032,17.5081969 13.8053271,17.5324336 C13.8096971,17.6058537 13.8204502,17.6800344 13.8147054,17.7526939 C13.8054253,17.8690607 13.810139,17.987557 13.7748354,18.1010337 C13.764426,18.1345493 13.7607925,18.1701946 13.7512669,18.2039638 C13.7418886,18.2369217 13.7289751,18.2688148 13.7175345,18.3012657 C13.702706,18.2937614 13.6883194,18.2852938 13.6738837,18.277181 C13.6328353,18.3138404 13.6318533,18.3661674 13.6012634,18.4075423 C13.5638975,18.4580439 13.5185282,18.4387255 13.4816534,18.469706 C13.4749756,18.4752835 13.472717,18.4846131 13.4708021,18.4933343 C13.459116,18.546574 13.4474791,18.5998644 13.4358422,18.6532055 C13.4324051,18.6382477 13.4133539,18.6333293 13.3988691,18.6370308 C13.3844334,18.6406815 13.3714217,18.6498083 13.3566914,18.6519886 C13.3226153,18.6569069 13.2943822,18.623442 13.2828926,18.5899263 C13.2713538,18.5564613 13.2688006,18.5190921 13.2500931,18.4893286 C13.220878,18.5531655 13.1916138,18.6170025 13.1623988,18.6808901 C13.1565557,18.693617 13.1480122,18.7082706 13.134313,18.7084227 C13.1215467,18.7085241 13.1127086,18.6956958 13.1065709,18.6841352 C13.0645896,18.6055433 13.0377804,18.5183316 13.0281076,18.4291424 C13.0102839,18.5351655 12.9924602,18.6411378 12.9746366,18.7471609 C12.9365833,18.7496961 12.9140951,18.7050255 12.9017216,18.667707 C12.8854692,18.6187771 12.8692168,18.5697966 12.8529152,18.5208668 C12.8269899,18.5750699 12.8011137,18.6293237 12.7752375,18.6835775 C12.761391,18.7124283 12.7434691,18.7447271 12.7128301,18.7505581 C12.6743349,18.7578595 12.6419283,18.7175495 12.6331392,18.6781521 C12.6272471,18.6519886 12.6364781,18.5911939 12.618949,18.5711149 C12.6080977,18.5586923 12.5729414,18.5731938 12.5666074,18.5529627 C12.5528591,18.5056554 12.5257062,18.4612383 12.5485382,18.4063761 C12.5602733,18.3782351 12.555265,18.3427419 12.5578183,18.3113559 C12.5481454,18.3281898 12.5376869,18.3464434 12.5254607,18.3677393 C12.5118598,18.3525279 12.5021378,18.3416264 12.4924649,18.3307757 C12.4951654,18.3353391 12.4978169,18.3400039 12.5005174,18.344618 C12.4663431,18.370528 12.4321689,18.3964887 12.3900893,18.4283818 C12.3854247,18.4112944 12.3800727,18.392483 12.3753099,18.3735703 C12.3692705,18.3494856 12.3655388,18.3052713 12.3577318,18.3045108 C12.3255706,18.3015192 12.2915927,18.3093784 12.2598735,18.3188601 C12.2535886,18.3207869 12.2504461,18.3483194 12.2527048,18.3628716 C12.2569765,18.390252 12.2694482,18.4164156 12.2722469,18.443796 C12.274211,18.4627088 12.2657165,18.4827877 12.2603645,18.5097118 C12.1854364,18.4444551 12.2501024,18.3515138 12.1978589,18.2874741 C12.1791515,18.2984262 12.1597075,18.3098347 12.1347151,18.3244376 C12.1406563,18.261412 12.1597075,18.2031525 12.1032413,18.1603579 C12.1187082,18.145248 12.1339295,18.1303916 12.1515076,18.1132535 C12.1090353,18.0912984 12.093814,18.1154845 12.0828153,18.1447916 C12.0736334,18.169434 12.0668575,18.1951412 12.0569391,18.2270343 C12.0998043,18.2719585 12.0581666,18.3241841 12.047168,18.3752942 C12.0449585,18.3854351 12.0124536,18.3906577 11.9933042,18.3931422 C11.9891797,18.3936492 11.9818146,18.3725562 11.9770518,18.3608434 C11.9649239,18.3310799 11.9533851,18.3011136 11.9413554,18.2703359 C12.0304737,18.2550232 12.0426998,18.2370231 12.0244834,18.1557438 C12.0005712,18.1579241 11.9736147,18.1536142 11.9547109,18.1643129 C11.938753,18.1734397 11.9322226,18.2001102 11.9156756,18.229316 C11.9034003,18.1916426 11.8918616,18.1565551 11.8804211,18.1214676 C11.8751673,18.1258282 11.8695206,18.1304423 11.8510096,18.1458057 C11.8360338,18.0467799 11.8158042,17.9571344 11.8105504,17.8666269 C11.8053947,17.7773363 11.81767,17.6870316 11.8179646,17.5972339 C11.818161,17.5368956 11.8149203,17.4758981 11.8057876,17.4164218 C11.7941015,17.3406693 11.7980787,17.269683 11.8207634,17.1954516 C11.8328422,17.15575 11.8184065,17.1067695 11.8136437,17.062251 C11.8085372,17.0154 11.8002391,16.9689547 11.7941997,16.9222052 C11.79091,16.8965994 11.788504,16.8706894 11.7871783,16.8448301 C11.7831029,16.76421 11.7796658,16.6834885 11.7760324,16.6028683 C11.775836,16.59795 11.7743629,16.5917134 11.7766216,16.5882147 C11.8080953,16.5396906 11.7881112,16.4878706 11.7874729,16.4369633 C11.7859017,16.327543 11.7843795,16.2179706 11.7878166,16.1085503 C11.7903207,16.030364 11.8022523,15.9525834 11.8073097,15.874397 C11.8100102,15.833225 11.8022032,15.7909375 11.8078007,15.7503739 C11.8136437,15.7077314 11.828865,15.6663566 11.8416313,15.624931 C11.8676548,15.5404066 11.8408457,15.4612062 11.8204197,15.3812453 C11.8164425,15.3656283 11.8095192,15.350062 11.8091264,15.3343436 C11.8047073,15.1571821 11.8018595,14.9800207 11.7974895,14.8028592 C11.7954272,14.7204644 11.787522,14.6381204 11.788013,14.5557763 C11.7891914,14.3900233 11.795771,14.2243211 11.7970967,14.0585681 C11.7976368,13.9857565 11.7883567,13.9129449 11.7874729,13.8400318 C11.7857544,13.7053607 11.7859508,13.5705882 11.787522,13.4359171 C11.7881603,13.3770999 11.799699,13.3180799 11.7966057,13.259719 C11.7887004,13.1084675 11.7743629,12.9574696 11.7647391,12.8062688 C11.7610566,12.748415 11.766114,12.689902 11.7618913,12.6321496 C11.7590925,12.5940706 11.7420054,12.5570056 11.7397958,12.5189265 C11.7346402,12.4324754 11.7347384,12.34572 11.7327744,12.2590661 C11.7319397,12.2227109 11.731105,12.1863558 11.7304666,12.14995 C11.728699,12.0454481 11.7288463,11.9408447 11.7245745,11.8364949 C11.7223159,11.7819369 11.7125939,11.7277338 11.7059652,11.6733786 C11.6997785,11.6227248 11.6921188,11.5722231 11.6872578,11.5214172 L13.6673042,8.73206227 C13.6703976,8.7595441 13.6747185,8.78697522 13.6815435,8.81435564 C13.6839004,8.82368527 13.6830656,8.83397828 13.6829674,8.84381495 C13.6816908,8.99040161 13.6867973,9.13637981 13.7147358,9.28083688 C13.7199896,9.30776096 13.7144903,9.33676392 13.7162088,9.36465139 C13.7190076,9.41018401 13.7372731,9.45997582 13.7249488,9.50013376 C13.6975504,9.58942436 13.7292206,9.66994308 13.736733,9.75487308 C13.7481735,9.88548783 13.7578464,10.0187899 13.7448347,10.1484413 C13.7306936,10.2893997 13.7319702,10.4296483 13.727011,10.5702519 C13.7250961,10.6236944 13.7122807,10.6766806 13.7092365,10.7301231 C13.7072233,10.7660726 13.7140975,10.8025291 13.7165034,10.8387828 C13.7201369,10.8946591 13.7249488,10.9505355 13.7263236,11.0065132 C13.7282876,11.0858657 13.7252925,11.1653704 13.7290242,11.2445708 C13.7309391,11.2842724 13.7467987,11.3232134 13.7497448,11.3630164 C13.7586812,11.4828311 13.7664882,11.6028486 13.7704654,11.7229169 C13.7724294,11.782596 13.7642296,11.8426301 13.7624128,11.9025121 C13.7619218,11.9182305 13.7698762,11.9339996 13.7709564,11.9499208 C13.7753755,12.0142141 13.7810221,12.0786088 13.7815622,12.1430035 C13.781955,12.1921868 13.7715947,12.2415223 13.7725767,12.2906549 C13.7743935,12.3820244 13.7815131,12.4733432 13.7854903,12.5647127 C13.787307,12.6063918 13.7861777,12.6481722 13.7877489,12.689902 C13.7889765,12.7220994 13.791677,12.7542967 13.7950159,12.786342 C13.8016936,12.8499761 13.8130359,12.9133567 13.815491,12.9770922 C13.8190754,13.0694251 13.8190754,13.1621636 13.8155401,13.2544964 Z M16.9657644,18.2793441 C16.951847,18.307632 17.0031039,18.4020889 17.0392552,18.4031343 C17.0625075,18.4037493 17.1057025,18.3821029 17.1081635,18.3696193 C17.0629318,18.3322302 17.019652,18.2931806 16.9791727,18.2531471 C16.9744204,18.2621254 16.9700076,18.2707963 16.9657644,18.2793441 Z M8.48405661,17.1406204 C8.48891858,17.1693626 8.49355614,17.1986765 8.4987921,17.2292379 C8.53050704,17.2176994 8.55130128,17.210163 8.57942585,17.199872 C8.58907497,17.2121381 8.5982753,17.2237285 8.60747563,17.2354229 C8.61458157,17.2327202 8.62168751,17.2300175 8.62879346,17.2274187 C8.62408109,17.2138533 8.62064032,17.2000279 8.61435717,17.1868262 C8.60508205,17.1673356 8.5854098,17.1483647 8.58511061,17.1290819 C8.58488621,17.1145809 8.5857838,17.0999759 8.5860082,17.0854229 L8.48405661,17.1406204 Z M10.4155913,15.0399534 C10.417408,15.0258575 10.4233492,15.012218 10.4244295,14.9981222 C10.4303216,14.9226739 10.4341515,14.8470228 10.4407801,14.7715746 C10.449471,14.6728022 10.4626791,14.5743848 10.4692587,14.4754604 C10.4760346,14.3745078 10.4800609,14.2730988 10.4794226,14.1719433 C10.4790789,14.1185515 10.4676383,14.0650076 10.4580636,14.0121228 C10.4554122,13.9973171 10.4416639,13.9846917 10.4336113,13.9720663 C10.3667849,14.0228215 10.409601,14.0903598 10.3974239,14.1475038 C10.3888312,14.1877124 10.4002718,14.2326366 10.4035615,14.2753805 C10.4058202,14.304282 10.4090118,14.3331836 10.4126452,14.3618823 C10.4158368,14.3870318 10.4282593,14.4141587 10.4227109,14.4367222 C10.4012047,14.5241367 10.4137745,14.6099794 10.4231528,14.6968361 C10.4273264,14.7358786 10.4463776,14.7816647 10.3956563,14.8091973 C10.3874564,14.8136086 10.3859343,14.8314566 10.3817116,14.8432707 C10.3765069,14.8577722 10.3717932,14.8724258 10.3662939,14.8885498 C10.3605,14.885254 10.3555408,14.8823639 10.3505325,14.879423 C10.3196971,14.7825267 10.2796797,14.689484 10.2786977,14.585337 C10.2777648,14.4921929 10.2798762,14.3968177 10.2888125,14.3034708 C10.2972088,14.215752 10.3092876,14.1282868 10.3138049,14.0403652 C10.3181749,13.9564493 10.3135594,13.8721277 10.3153762,13.788009 C10.3174384,13.6934452 10.3223485,13.598932 10.3257365,13.5043681 C10.3265221,13.4824638 10.3272095,13.4604074 10.326473,13.4384523 L8.52343561,15.9784933 L10.4132835,15.1398412 C10.4118596,15.1344158 10.4111722,15.1289905 10.4090609,15.1235144 C10.4002227,15.1000889 10.4120069,15.067993 10.4155913,15.0399534 Z M13.6832904,6.70352805 C13.6465272,6.71430391 13.6039746,6.7742177 13.5602641,6.85352805 L13.6832904,6.70352805 Z M10.399388,13.335725 C10.392121,13.3487054 10.392121,13.3675674 10.3927593,13.3835394 C10.3954108,13.4471735 10.4016957,13.5107062 10.402825,13.5742896 C10.4045436,13.6755972 10.4032669,13.7769554 10.4032669,13.8783137 C10.4079806,13.8798855 10.4126943,13.8815081 10.417408,13.8831306 C10.4303707,13.8672601 10.4498638,13.8534178 10.4552158,13.8352149 C10.4738251,13.7717836 10.4949876,13.7076424 10.5016653,13.642335 C10.5174267,13.487585 10.5262158,13.3320743 10.5360851,13.1767665 C10.5368216,13.1650537 10.5371162,13.1532396 10.5372635,13.1414762 L10.399388,13.335725 Z M12.1515294,7.62305383 C12.166442,7.66498644 12.1848599,7.70382607 12.1848005,7.74869954 C12.1847411,7.77242924 12.1943065,7.79620964 12.2006637,7.82500979 C12.2715431,7.79742655 12.2824156,7.76548272 12.2622153,7.69383729 C12.2508674,7.65337511 12.2467085,7.61123969 12.2421932,7.56966201 C12.2351825,7.50567296 12.2306671,7.44158249 12.2250229,7.37754273 C12.2180122,7.37657934 12.2110015,7.37556525 12.2039314,7.37460187 C12.1904447,7.39833157 12.1822457,7.42616833 12.1624019,7.4450304 C12.1017415,7.50268139 12.1321014,7.56844511 12.1515294,7.62305383 Z M12.2474144,7.37872507 C12.3216644,7.32642511 12.3113881,7.26838491 12.2268618,7.22872507 C12.1372697,7.25997749 12.1424802,7.32149662 12.2474144,7.37872507 Z M11.721383,9.09039084 C11.722856,9.07756261 11.724329,9.06483578 11.7255074,9.05200755 C11.7294846,9.00586647 11.7279625,8.95921835 11.7312032,8.91292516 C11.736948,8.83118953 11.7409743,8.74909897 11.7468173,8.66736335 C11.7514819,8.60256302 11.7572758,8.53796551 11.7660158,8.47382434 C11.783152,8.34787441 11.7847232,8.22233011 11.7867855,8.09622806 C11.7878166,8.03299957 11.7905172,7.96946686 11.7861963,7.90654259 C11.7775545,7.78008561 11.7624314,7.65408498 11.7542806,7.52757729 C11.7493705,7.45212902 11.7550171,7.3760723 11.7515801,7.30047192 C11.7488304,7.24129979 11.7337564,7.18233047 11.7344929,7.12341186 C11.7352294,7.06910736 11.747652,7.01449864 11.7588961,6.96085329 C11.7695019,6.91019952 11.7868346,6.86106687 11.7985206,6.81056521 C11.812318,6.75083533 11.8553305,6.71787742 11.9011908,6.68882375 C11.9277544,6.67204056 11.9854972,6.70474495 11.9957593,6.74251979 C12.0123554,6.80356799 12.0248271,6.86299364 12.0120117,6.93017708 C11.9985089,7.00080843 12.0084764,7.07600317 12.0046957,7.14896692 C12.0034681,7.17406564 11.9887378,7.19820098 11.9859882,7.22345181 C11.9831403,7.24870264 11.9868229,7.27486615 11.9890324,7.30052262 C11.9910456,7.32435373 11.9958575,7.34798202 11.9977724,7.37186383 C12.0020933,7.42515424 12.0037627,7.47874888 12.0095567,7.53183647 C12.0260055,7.68288512 11.9723381,7.7992012 11.9979688,7.95455974 C12.0019951,7.97905 12.0076908,8.0050107 12.0249744,8.02235163 C12.0422579,8.03974327 12.074861,8.04268413 12.0883637,8.02209811 C12.0939613,8.01357975 12.0952379,8.00298252 12.0964654,7.99284162 C12.1122759,7.85720713 12.1070712,7.72780929 12.1070712,7.59116071 C12.106973,7.54796049 12.1044198,7.50481098 12.1046162,7.46171217 C12.1046653,7.44340785 12.1092808,7.42520494 12.1115394,7.40690062 C12.1132088,7.39280478 12.1167932,7.37840471 12.1153693,7.36456238 C12.1100173,7.31096774 12.1035851,7.25742381 12.096269,7.2040827 C12.0907697,7.16433038 12.0891494,7.12249918 12.0755484,7.08563703 C12.0460387,7.00603099 12.0475117,6.9269827 12.0629294,6.84570342 C12.0683305,6.81705538 12.0685269,6.78739326 12.0712275,6.75818748 C12.0756957,6.70946047 12.1103119,6.69440124 12.1481196,6.69769703 C12.1823921,6.7007393 12.2033092,6.72208589 12.2085139,6.76584386 C12.2140132,6.81239057 12.2372379,6.85675699 12.2527048,6.9020361 C12.2581059,6.90137694 12.2636052,6.90066707 12.2690063,6.90000792 C12.2710194,6.8771909 12.2744074,6.85437388 12.274702,6.83150616 C12.2758804,6.75798466 12.2812815,6.75063251 12.3468313,6.72203518 C12.3705962,6.71164076 12.391857,6.69526322 12.4147871,6.6825871 C12.4226924,6.67822651 12.4368826,6.67163493 12.4401723,6.67482931 C12.4655084,6.69972521 12.4935942,6.69034488 12.5223674,6.68679557 C12.5509933,6.68319555 12.5800119,6.68324625 12.622337,6.68096455 C12.6311752,6.70291959 12.6467893,6.74186064 12.6681973,6.79535386 C12.6805708,6.76128045 12.6866593,6.73861555 12.6969705,6.71818164 C12.7045811,6.703021 12.7156289,6.68583218 12.7294262,6.67949412 C12.7363986,6.67629974 12.7543695,6.69369138 12.7646808,6.70449143 C12.7776434,6.71802953 12.7889857,6.73359581 12.7990023,6.74961842 C12.8473177,6.82724698 12.8467285,6.82709487 12.9042749,6.75124096 C12.9195944,6.73106058 12.9371234,6.71214781 12.9556345,6.69500969 C13.001102,6.65302638 13.0348344,6.66636166 13.0950813,6.69952239 C13.1304831,6.71899291 13.185378,6.71579853 13.2268193,6.70444073 C13.275822,6.69100404 13.3067066,6.69607449 13.3285074,6.74860433 C13.3315026,6.75580437 13.3337612,6.76599597 13.3393096,6.76908894 C13.4291153,6.81923568 13.4161527,6.79631725 13.4366278,6.8783571 C13.4394756,6.88971491 13.4429618,6.89590085 13.446448,6.9009713 L12.2082684,8.47245532 C12.2146515,8.43452837 12.2055187,8.38884363 12.1791024,8.35188006 L12.1791024,8.50946959 L11.721383,9.09039084 Z M17.1754716,16.5843105 C17.1834321,16.435645 17.1913927,16.2096044 17.1913927,16.2559483 C17.1912479,16.3053851 17.182419,16.4574479 17.1754716,16.5843105 Z" id="Fill-42" fill="#FFFFFF"></path>
                            <path d="M16.9093629,7.37533774 C16.8997936,7.36028584 16.8485575,7.36513013 16.8162609,7.36089138 C16.8118749,7.36997442 16.8075886,7.37897096 16.8032027,7.3879675 C16.8416795,7.42897096 16.8801564,7.46988792 16.918733,7.51089138 C16.928402,7.50725816 16.9381708,7.50362494 16.9479395,7.50007823 C16.9363765,7.4578637 16.9324889,7.41201594 16.9093629,7.37533774 Z M17.0677557,9.55365742 C16.9199794,9.63018388 16.93069,9.67180531 17.0677557,9.70365742 L17.0677557,9.55365742 Z M6.12496527,18.9860094 C6.05435805,18.976477 5.86129297,19.0874691 5.81916432,19.022973 C5.80296099,18.9981785 5.79922932,18.9536093 5.77035794,18.9560431 C5.75906471,18.9570572 5.75027563,18.9663868 5.7435488,18.9758178 C5.69817948,19.039452 5.69621544,19.1290468 5.64662345,19.1892837 C5.64127144,19.1957739 5.6341518,19.2023655 5.62595193,19.2014528 C5.61593533,19.200388 5.61038692,19.1892837 5.60665524,19.1795991 C5.57032051,19.0861508 5.53393668,18.992601 5.49755285,18.8990512 C5.46652102,18.9560938 5.4354401,19.013187 5.40440827,19.0702803 C5.38486608,19.0408717 5.36527479,19.0115138 5.34573259,18.9821559 C5.32957837,18.9954405 5.31342414,19.008725 5.29726992,19.0220096 C5.26957696,18.981446 5.2418349,18.9408317 5.21414194,18.9002682 C5.18924774,18.9991419 5.1425527,19.0920832 5.07862322,19.170016 C4.96461072,18.796831 5.05927743,18.4073699 5.05971934,18.0270356 C5.05981754,17.9368323 5.05156857,17.8464769 5.04641297,17.7562736 C5.0429759,17.6961888 5.03919512,17.6361547 5.03546345,17.5760699 L0.0149856216,23.9480008 L6.17146391,18.9984827 C6.1561444,18.9929559 6.14072669,18.988139 6.12496527,18.9860094 Z M10.4164407,15.2588751 C10.4121198,15.3553657 10.4054421,15.4514507 10.4284214,15.5481441 C10.4303854,15.5562061 10.431171,15.5646231 10.4323494,15.5729386 L11.6582047,14.5873449 L10.4132492,15.1398209 C10.4236586,15.1799789 10.4182575,15.2186664 10.4164407,15.2588751 Z M16.9893506,10.112227 C16.9918112,10.1277512 17.0408769,10.139848 17.0688112,10.1534569 C17.0727191,10.1066827 17.0764822,10.0598077 17.0805348,10.0129327 C17.056798,10.0098077 17.0332059,10.0065819 17.0094691,10.0034569 C17.0013638,10.039848 16.9838506,10.076844 16.9893506,10.112227 Z M16.3354666,4.909786 L19.7445482,0.0106175186 C17.480649,1.84566344 15.3107781,3.491176 13.2383236,4.94416364 L15.6375943,4.11996228 L13.6019655,6.70355847 C13.608987,6.70142888 13.6153701,6.70452185 13.6208694,6.71486557 C13.669774,6.80735054 13.629904,7.47254265 13.6460091,7.56969244 C13.651312,7.60163626 13.6669261,7.69396912 13.6669752,7.72591295 C13.6670734,7.82534443 13.6154192,8.09377396 13.6150755,8.12886147 C13.6139953,8.24735784 13.6507228,8.35855277 13.6710015,8.47299279 C13.6754697,8.49844644 13.675126,8.52602967 13.6710997,8.55168614 C13.661525,8.6123287 13.6604939,8.67231211 13.6672698,8.73204199 L14.8998028,6.9957177 C14.9007358,6.96559923 14.9017178,6.93543007 14.9026507,6.9053116 C14.9041237,6.85927193 14.9055477,6.81328297 14.9070207,6.7672433 C14.908641,6.71699516 14.9067752,6.66482025 14.9316203,6.61954114 C14.935352,6.62511864 14.9390836,6.63069613 14.9428153,6.63627362 C14.9709993,6.60909602 14.9730124,6.58749591 14.9966791,6.55605913 C15.0061556,6.5715747 15.016565,6.58648182 15.02776,6.60062837 C15.0319827,6.60595234 15.036991,6.61152983 15.0436196,6.6122397 C15.0529488,6.61330449 15.0885961,6.59368186 15.0958631,6.5839973 C15.1031791,6.57431274 15.1409378,6.55925351 15.1428527,6.55109009 C15.1495796,6.56128169 15.1564046,6.571524 15.1630823,6.5817156 C15.1653901,6.5851635 15.1680415,6.58886493 15.1719696,6.5896762 C15.179924,6.59129875 15.2148839,6.61031293 15.2389925,6.62080875 C15.2594676,6.62973274 15.2828888,6.62319187 15.3041495,6.61649887 C15.3052297,6.63617221 15.3131841,6.65533851 15.3261958,6.66973858 C15.3353777,6.66608786 15.3440195,6.660916 15.3516301,6.65447653 C15.3746094,6.65812725 15.3881122,6.68297245 15.3948881,6.70589088 C15.4017131,6.72886001 15.4061813,6.75441507 15.423514,6.77038698 C15.4288169,6.7491418 15.4362802,6.72850508 15.4456585,6.70883174 C15.4517962,6.71613318 15.4578847,6.72338392 15.4640223,6.73063466 C15.4795382,6.72576703 15.4952505,6.72079799 15.5090479,6.71207682 C15.5291793,6.69935 15.5400797,6.67810482 15.5480832,6.65599767 C15.556725,6.63231867 15.642799,6.64433563 15.6590023,6.65721457 C15.6856151,6.67835834 15.6721123,6.75689959 15.7330957,6.72870789 C15.7592174,6.71658952 15.7719346,6.68560908 15.7766483,6.6564033 C15.7838661,6.61168195 15.7781213,6.5658451 15.780871,6.52056599 C15.7836697,6.4753376 15.797418,6.5285266 15.8331144,6.50210956 C15.8694492,6.52163079 15.8850142,6.56559157 15.9021504,6.60407628 C15.9192867,6.64251027 15.9480598,6.68347949 15.9890592,6.68383443 C16.0184216,6.68408795 16.043414,6.66294418 16.0655094,6.64296661 C16.0850025,6.67054985 16.1058704,6.69701759 16.1281132,6.72226842 C16.1342508,6.72921494 16.1408794,6.73636427 16.1497176,6.73874738 C16.1680323,6.74376712 16.1843338,6.7265276 16.1959707,6.71111344 C16.216053,6.68454429 16.2361353,6.65792444 16.2561685,6.63135529 C16.2705551,6.64555254 16.298199,6.76222356 16.3149424,6.75913058 L16.3327661,6.7558855 C16.3408186,6.72921494 16.3488712,6.70264579 16.3576112,6.67349071 C16.3636997,6.67739496 16.3707211,6.68185695 16.3808851,6.68834713 C16.3873664,6.65741739 16.3935531,6.62780597 16.3985614,6.60361994 C16.4110331,6.6213158 16.4346015,6.66294418 16.4397571,6.66066248 C16.4732931,6.64570466 16.5043249,6.62222848 16.5011825,6.57329865 C16.5098733,6.60382275 16.5167966,6.63510742 16.5277952,6.66471884 C16.5373699,6.69022319 16.5418381,6.72333322 16.5858326,6.70933878 C16.6013485,6.70436974 16.6153423,6.73017832 16.6262918,6.73676991 C16.6437226,6.74731644 16.6651798,6.75081505 16.6829543,6.76202074 C16.6867842,6.72384026 16.703724,6.68718092 16.7299931,6.66000332 C16.7352469,6.66821745 16.7374564,6.67851046 16.7360325,6.68824572 C16.7456563,6.68611613 16.7541999,6.67962595 16.7589627,6.67085408 L16.7688811,6.69965422 C16.7937262,6.67886539 16.8164108,6.6552371 16.8362967,6.62932711 C16.8570173,6.64134407 16.8738099,6.66040896 16.8833355,6.68287104 C16.8964945,6.6767358 16.908868,6.66897801 16.9201121,6.65969909 C16.9447117,6.68571049 16.9615533,6.71937827 16.9678874,6.75512493 C16.971128,6.74026851 16.977904,6.72627408 16.9874787,6.71466275 C16.9898355,6.7231811 16.9909157,6.73210509 16.9905229,6.74097838 C16.9952857,6.74280374 17.0004904,6.74315867 17.0054005,6.74204317 C17.0090831,6.82529993 16.9958258,6.90820176 16.9917504,6.99140782 C16.9841398,7.14727339 17.0084939,7.30354461 16.9981336,7.45920737 C16.9952857,7.50276252 16.9896391,7.54601344 16.9840907,7.58926437 C16.9840907,7.65016045 16.9644994,7.71191851 16.960424,7.77271318 C16.958951,7.79350202 16.9645976,7.80972745 16.9672982,7.82995854 C16.9717172,7.86276434 16.9702933,7.8972941 16.9724047,7.93035342 C16.977413,8.00742423 16.9629282,8.07050061 16.9605222,8.14224745 C16.9577235,8.22256335 16.9977408,8.29258624 16.9688694,8.37548807 C16.9576744,8.4074826 16.9801135,8.45113915 16.9842871,8.48992808 C16.9872332,8.51751132 16.9848763,8.54570301 16.9800644,8.57389471 C16.9968078,8.63316825 17.0088376,8.68960233 16.9782477,8.75323646 C16.9694095,8.77169289 16.9786896,8.80100008 16.9512912,8.81509593 C16.948738,8.81641424 16.9491799,8.83350166 16.9534517,8.83791295 C16.977904,8.86331589 16.9812428,8.89105124 16.9791315,8.92025702 C16.9756453,8.96741219 16.9719136,9.01456736 16.9717172,9.06187464 C16.9712753,9.17955975 16.9715699,9.29719415 16.9710789,9.41482854 C16.9708825,9.44738082 16.9778058,9.46938657 17.0135513,9.45143718 C17.0218985,9.51471637 17.0300001,9.57622091 17.0393784,9.64746071 C17.0173321,9.6383339 17.007561,9.63427754 16.9981336,9.6303733 C16.9929289,9.70424973 16.9856128,9.77807545 16.9834524,9.85205329 C16.9824704,9.88577178 16.9895409,9.92045364 16.9977899,9.95331015 C17.0006868,9.96471865 17.0182159,9.97217221 17.0290672,9.98140043 L17.0400167,9.97343982 C17.0418826,9.98271875 17.045516,9.99199767 17.0452705,10.0011752 C17.0426682,10.1031419 17.0402622,10.2050579 17.0363832,10.3069232 L18.5195768,9.20288381 L19.4648199,2.71762842 L16.5088913,5.47387337 L16.3354666,4.909786 Z M13.4464136,6.90095102 C13.4534663,6.90901303 13.4603942,6.91413418 13.4637021,6.93264132 C13.4737507,6.98917682 13.5345414,6.84071409 13.5911504,6.75649395 L13.4464136,6.90095102 Z M17.0577666,10.2638751 C16.9728061,10.3257326 16.9500824,10.3717314 16.9903192,10.4138751 L17.0577666,10.3844358 L17.0577666,10.2638751 Z M16.773561,7.6307529 C16.7891117,7.63854464 16.8235841,7.64888169 16.8328275,7.64597277 C16.8525105,7.63984326 16.8764346,7.62394811 16.8718673,7.61522135 C16.8510968,7.57506789 16.821083,7.53595334 16.7944402,7.49647516 C16.7846531,7.49787768 16.774866,7.49933214 16.7650789,7.50068271 C16.7622515,7.51590258 16.7697549,7.5342911 16.7545305,7.54566704 C16.7108147,7.5780807 16.7228855,7.60535181 16.773561,7.6307529 Z M8.64289748,16.8968326 C8.63238378,16.9008383 8.55777386,16.9264441 8.55670648,16.9427709 C8.55366444,16.990281 8.55168979,17.0378418 8.55099599,17.0854533 L8.6245919,17.0309967 C8.62363126,17.0232896 8.62299083,17.0155318 8.62192345,17.0077741 C8.61797414,16.9781119 8.61285071,16.9486019 8.60826097,16.9190412 C8.61423831,16.9153905 8.6897555,16.9117398 8.69573283,16.9081397 C8.67780084,16.9035763 8.65672006,16.8915594 8.64289748,16.8968326 Z M8.828532,14.8421737 C8.79150892,14.8580741 8.74592009,14.9025502 8.75086919,14.9292508 C8.76095774,14.9837772 8.82672367,14.9947274 8.89201373,14.9889523 C8.9073369,14.9139504 8.86498403,14.8264983 8.828532,14.8421737 Z M12.2650908,8.47243504 L12.1791171,8.56865648 L12.1791171,8.62243504 C12.2244197,8.5869781 12.2533671,8.53346316 12.2650908,8.47243504 Z M8.70758631,15.0921587 C8.68489224,15.0983447 8.66219818,15.1045306 8.63193942,15.1128461 C8.62750494,15.1116292 8.61124521,15.1071672 8.59402902,15.1024517 C8.54594541,15.2076128 8.5529884,15.2571004 8.61854905,15.2881315 C8.65306838,15.2519792 8.72775882,15.221303 8.65558994,15.1707 C8.6665457,15.1715619 8.67741451,15.1724746 8.68828331,15.1733873 C8.69471765,15.1462604 8.70115198,15.1191842 8.70758631,15.0921587 Z M7.10806526,18.2454705 L8.48407134,17.1392508 C8.48127259,17.1142028 8.47837563,17.0896111 8.47508586,17.0650701 C8.46742611,17.0078755 8.51971866,16.9511879 8.51431755,16.8938411 C8.51092959,16.8582972 8.51844204,16.8217393 8.5168217,16.7858912 C8.51245172,16.6895527 8.50621589,16.5933156 8.49993096,16.4970785 C8.49286042,16.3895343 8.53381065,16.2821422 8.52904785,16.1744966 C8.48632999,15.2057875 8.43668889,14.2469657 8.4270651,13.2715129 L7.14911368,14.8934479 C7.14798436,15.0468289 7.14705144,15.1580238 7.14660953,15.1832747 C7.14474369,15.2805259 7.13894978,17.2872065 7.1300625,17.3580913 C7.12122432,17.4280128 7.11940758,17.499354 7.11970219,17.5699854 C7.1199968,17.6385885 7.13423608,17.7076987 7.12922778,17.7755413 C7.12323746,17.8557051 7.11798365,18.0685625 7.10806526,18.2454705 Z M8.81226235,14.2279008 L8.81226235,14.3779008 C8.90011761,14.3281285 8.92790709,14.2782587 8.81226235,14.2279008 Z M11.6872234,11.521397 C11.6869779,11.5189631 11.6865851,11.5165293 11.6864378,11.5140955 C11.6761757,11.4005682 11.6639986,11.2870408 11.6595795,11.17326 C11.655406,11.0658679 11.6611017,10.9581209 11.6606598,10.8505767 C11.6604634,10.7985032 11.6527545,10.746379 11.6543257,10.6945083 C11.6599724,10.5112116 11.6673866,10.3279656 11.6757829,10.1447703 C11.6815768,10.0172992 11.6902677,9.88998025 11.6973873,9.76255988 C11.703083,9.66110021 11.7110374,9.55964055 11.7129523,9.45807947 C11.7141307,9.39353266 11.7015609,9.32863092 11.7036722,9.26418553 C11.7055872,9.2061289 11.71472,9.14832579 11.7213486,9.09037056 L10.5505846,10.5763668 C10.5555438,10.5957866 10.5594228,10.6153079 10.5600611,10.6349812 C10.5609449,10.6623109 10.5554947,10.6899956 10.5575079,10.7171732 C10.5651676,10.8196976 10.5764608,10.9219686 10.5826967,11.0245944 C10.5860355,11.0795581 10.5817147,11.1349781 10.5810763,11.1901953 C10.5804871,11.2396322 10.5813218,11.289069 10.5796524,11.3384552 C10.5767555,11.423588 10.5730238,11.5086701 10.5684574,11.5937016 C10.5641856,11.6735104 10.5561821,11.7531672 10.5540217,11.832976 C10.5521559,11.9023904 10.5569187,11.971957 10.5573115,12.0415235 C10.5576552,12.0931914 10.5552983,12.14491 10.5548073,12.1966286 C10.5543654,12.2410457 10.5626635,12.2873389 10.5531379,12.3294743 C10.5383585,12.3948324 10.6309629,12.467644 10.5816656,12.5269176 C10.5453308,12.5705741 10.5800943,12.6135208 10.589178,12.6564168 C10.5977216,12.6967776 10.5632036,12.7374426 10.5618779,12.7774991 C10.5592755,12.8571051 10.544938,12.9362548 10.5389477,13.0158609 C10.5358543,13.05754 10.5378184,13.099574 10.5372292,13.1414559 L11.6872234,11.521397 Z M10.4253024,12.8331219 C10.4231432,12.8117753 10.4132111,12.7909865 10.406857,12.7699441 C10.4005647,12.7694371 10.3942723,12.7690315 10.3879799,12.7685244 C10.3777393,12.7882992 10.3603427,12.8075669 10.358492,12.8277979 C10.3538036,12.8807334 10.3598492,12.9343281 10.3541737,12.9871114 C10.3465858,13.0576414 10.3319036,13.1276643 10.3203059,13.19789 C10.3184552,13.2091971 10.3146304,13.2206056 10.315309,13.231862 C10.3195039,13.2987919 10.3251794,13.3656204 10.3292509,13.432601 C10.3293743,13.4345278 10.3292509,13.4365053 10.3293126,13.4384827 L10.4209841,13.3357047 L10.4209841,13.335654 C10.4634269,13.2755185 10.464599,13.2128985 10.4551604,13.1456643 C10.4406015,13.041923 10.4359131,12.9372689 10.4253024,12.8331219 Z M10.3683218,12.1348359 C10.3730981,12.0885351 10.3780191,12.0422342 10.3839533,11.9848359 C10.4917823,12.0311368 10.4880191,12.0849592 10.3683218,12.1348359 Z" id="Fill-44" fill="#C00602"></path>
                            <path d="M10.3839435,11.9848258 C10.3780093,12.0422241 10.3730883,12.0885249 10.3683119,12.1348258 C10.488154,12.0849491 10.4917725,12.0311267 10.3839435,11.9848258 Z M8.81225253,14.2278907 L8.81225253,14.3778907 C8.90010779,14.328216 8.92789727,14.2782485 8.81225253,14.2278907 Z M8.82852292,14.8421635 C8.79159156,14.8580639 8.74599846,14.90254 8.75085284,14.9292407 C8.76094233,14.983767 8.82671443,14.9947173 8.8920106,14.9889422 C8.90733522,14.9139403 8.86497837,14.8264881 8.82852292,14.8421635 Z M8.70757649,15.0921486 C8.68488242,15.0983345 8.66227531,15.1045205 8.6319296,15.112836 C8.62749512,15.1116191 8.61123539,15.1071571 8.5940192,15.1024416 C8.54593559,15.2076534 8.55297858,15.2570903 8.61853923,15.2881214 C8.65314551,15.2520198 8.72783595,15.2212929 8.65558012,15.1706898 C8.66653588,15.1716025 8.67740469,15.1724645 8.68827349,15.1733772 C8.69470783,15.146301 8.70114216,15.1191741 8.70757649,15.0921486 Z M10.5372684,13.1414964 L10.3993929,13.3357453 L10.3993929,13.3356946 C10.4331743,13.2755084 10.4341073,13.2128883 10.4265948,13.1457049 C10.415007,13.0419635 10.4113244,12.9372588 10.4028299,12.8331118 C10.4011114,12.8118159 10.3932061,12.7909764 10.3881487,12.769934 C10.3831404,12.7694777 10.3781321,12.7690213 10.3731238,12.7685143 C10.3649731,12.788289 10.3511266,12.8076074 10.3497027,12.8277878 C10.3459219,12.8807233 10.3507829,12.9343686 10.3462165,12.987152 C10.3401771,13.0576312 10.3285401,13.1276541 10.3193092,13.1978798 C10.317787,13.2091869 10.3147428,13.2205954 10.315332,13.2318518 C10.3186217,13.2987817 10.3231881,13.3656103 10.3263797,13.4325909 C10.3264779,13.4345176 10.3263797,13.4364951 10.3264779,13.4384726 L8.52344052,15.9785136 L10.4132884,15.1398615 C10.4236979,15.1800194 10.4182967,15.2186563 10.41648,15.2588649 C10.4121591,15.3554062 10.4054323,15.4514405 10.4284607,15.548134 C10.4303756,15.5562467 10.4311612,15.5646636 10.4323396,15.5729285 L8.61869643,17.0309866 C8.61781262,17.0232795 8.6172234,17.0155217 8.61624138,17.0077639 C8.61260791,16.9781525 8.60794332,16.9485918 8.60367153,16.9190311 C8.60917084,16.9153803 8.67864874,16.9117296 8.68414805,16.9081296 C8.66765012,16.9035662 8.64825523,16.8915492 8.63558717,16.8968225 C8.62586518,16.9008282 8.557222,16.9264339 8.55623998,16.9427608 C8.55349032,16.9902709 8.55167359,17.0378317 8.55098617,17.0854432 L8.48406152,17.1392406 C8.48126277,17.1141926 8.47836581,17.0896009 8.47507604,17.06506 C8.46741629,17.0078653 8.51970884,16.9511777 8.51430773,16.8938309 C8.51091976,16.8582871 8.51843222,16.8217799 8.51681188,16.7859318 C8.5124419,16.6895426 8.50620607,16.5933055 8.49992114,16.4970684 C8.4928506,16.3895242 8.53380083,16.2821321 8.52908713,16.1744865 C8.48632017,15.2057773 8.43667907,14.2469556 8.42705528,13.2715027 L10.5505748,10.5763567 C10.555534,10.5957765 10.559413,10.6152977 10.5600513,10.6349711 C10.5609351,10.6623008 10.555534,10.6899854 10.5575471,10.717163 C10.5651578,10.8196875 10.576451,10.9220091 10.5826869,11.024635 C10.5860257,11.079548 10.5817048,11.134968 10.5810665,11.1901851 C10.5804773,11.239622 10.581312,11.2890589 10.5796426,11.3384451 C10.5767456,11.4235779 10.573014,11.50866 10.5684476,11.5936914 C10.5641758,11.6735003 10.5561723,11.753157 10.5540119,11.8329659 C10.552146,11.902431 10.5569088,11.9719976 10.5573507,12.0415134 C10.5576454,12.0931813 10.5553376,12.1448998 10.5547975,12.1966184 C10.5544047,12.2410355 10.5626537,12.2873287 10.5531281,12.3294642 C10.5383487,12.3948222 10.6309531,12.4676339 10.5816557,12.5269074 C10.545321,12.570564 10.5801336,12.6135107 10.5891682,12.6564067 C10.5977118,12.6968181 10.5631938,12.7374324 10.561868,12.777489 C10.5592657,12.857095 10.5449282,12.9362447 10.538987,13.0158507 C10.5358445,13.0575298 10.5378086,13.0995638 10.5372684,13.1414964 Z M17.080525,10.0130169 C17.0567882,10.0097933 17.0331961,10.0066704 17.0094592,10.0034467 C17.001354,10.0398134 16.9838408,10.0767845 16.9893408,10.1121438 C16.9918013,10.1276576 17.0410119,10.1397463 17.0688013,10.1534467 C17.0727092,10.1066032 17.0766171,10.0597597 17.080525,10.0130169 Z M17.0677108,9.70364728 L17.0677108,9.55364728 C16.9199344,9.63017373 16.9307897,9.67179517 17.0677108,9.70364728 Z M16.9479297,7.50011255 C16.9363667,7.45787366 16.9325788,7.41199945 16.9093531,7.37530009 C16.8998834,7.3602395 16.8485477,7.36508659 16.8163507,7.36093194 C16.8119648,7.36993367 16.8075788,7.3789354 16.8031928,7.38802369 C16.8417694,7.42896425 16.8801466,7.46990482 16.9187231,7.51093194 C16.9284919,7.50738318 16.9381609,7.50374787 16.9479297,7.50011255 Z M16.871861,7.61521121 C16.8510894,7.57505775 16.8210739,7.5359432 16.7944297,7.49646502 C16.7846421,7.49786754 16.7748544,7.499322 16.7650667,7.50072451 C16.7622392,7.51589244 16.7697431,7.53428096 16.7545178,7.5456569 C16.7107996,7.57807056 16.722871,7.60534167 16.7736581,7.63074276 C16.7891009,7.6385345 16.823684,7.64887155 16.8328191,7.64596263 C16.8525032,7.63983312 16.8764286,7.62393796 16.871861,7.61521121 Z M17.0400069,9.97342968 C17.0418727,9.9827086 17.0455062,9.99198752 17.0452607,10.001165 C17.0426583,10.1031317 17.0402524,10.2050478 17.0363734,10.3069131 L17.0004315,10.3336343 L17.0004315,10.263865 C16.9716092,10.2996623 16.9639004,10.3262822 16.9775995,10.350671 L15.1539888,11.7081314 L16.799854,6.70491735 L15.5329503,7.86569506 L15.1309114,6.67013408 L14.899793,6.99570756 C14.900775,6.96558909 14.901708,6.93547063 14.9026409,6.90530146 C14.9041139,6.8593125 14.9055378,6.81327283 14.90706,6.76728386 C14.9086312,6.71698502 14.9068145,6.66486081 14.9316596,6.61958171 C14.9353421,6.62510849 14.9390738,6.63068599 14.9428055,6.63626348 C14.9709895,6.60908588 14.9730026,6.58748577 14.9966693,6.55609969 C15.0061458,6.57156456 15.0165552,6.58647168 15.0277993,6.60061823 C15.032022,6.6059422 15.0369812,6.61151969 15.0436098,6.61228026 C15.052939,6.61329435 15.0885863,6.59367172 15.0958533,6.58398716 C15.1031693,6.5743026 15.140928,6.55929408 15.1428429,6.55107995 C15.1495698,6.56127155 15.1563948,6.57151386 15.1630725,6.58170546 C15.1653803,6.58515336 15.1680317,6.58885479 15.1719598,6.58966606 C15.1799142,6.59128861 15.2148741,6.61030279 15.2389827,6.62079861 C15.2594578,6.6297226 15.2828789,6.62318172 15.3041888,6.61648873 C15.3052199,6.63616207 15.3131742,6.65537907 15.326186,6.66972844 C15.3353679,6.66612842 15.3440097,6.66090586 15.3516203,6.65446639 C15.3745996,6.65811711 15.3881024,6.68296231 15.3948783,6.70588074 C15.4017033,6.72884987 15.4062206,6.75440492 15.4235042,6.77037684 C15.4288562,6.74913166 15.4362704,6.72849493 15.4456487,6.7088216 C15.4517863,6.71612304 15.4578749,6.72337378 15.4640125,6.73062452 C15.4795284,6.72575689 15.4952407,6.72083856 15.5090381,6.71206668 C15.5292186,6.69933986 15.5400699,6.67809468 15.5480734,6.65598752 C15.5567151,6.63230853 15.6427892,6.64432549 15.6589925,6.65720443 C15.6856052,6.6783482 15.6721516,6.75688944 15.7330859,6.72869775 C15.7592076,6.71663009 15.7719248,6.68559894 15.7766876,6.65639316 C15.7838563,6.61167181 15.7781115,6.56583496 15.7808612,6.52055585 C15.7836599,6.47532745 15.7974082,6.52851646 15.8331046,6.50209942 C15.8694393,6.52162065 15.8850535,6.56558143 15.9021406,6.60406613 C15.9192768,6.64250013 15.94805,6.68346935 15.9890493,6.68382429 C16.0184117,6.68407781 16.0434041,6.66298474 16.0654996,6.64295647 C16.0849927,6.67053971 16.1059097,6.69700745 16.1281033,6.72225828 C16.134241,6.7292048 16.1409187,6.73635413 16.1497078,6.73873724 C16.1680224,6.74375698 16.184324,6.72651746 16.19601,6.7111033 C16.2160432,6.68453415 16.2361255,6.65791429 16.2561587,6.63134515 C16.2705453,6.6455424 16.2982383,6.76226412 16.3149326,6.75912044 L16.3328054,6.75587535 C16.3408088,6.7292555 16.3488614,6.70263565 16.3576505,6.67353128 C16.363739,6.67738482 16.3707113,6.68184681 16.3808752,6.68833698 C16.3873566,6.65745795 16.3935433,6.62784654 16.3986007,6.60360979 C16.4110232,6.62130566 16.4345917,6.66298474 16.4397473,6.66065234 C16.4732833,6.64569451 16.5043151,6.62221834 16.5011727,6.57328851 C16.5098635,6.60381261 16.5167868,6.63509728 16.5277854,6.6647087 C16.5373601,6.69026375 16.5418774,6.72332308 16.5858228,6.70932864 C16.6013387,6.7043596 16.6153816,6.73016818 16.626282,6.73681047 C16.6437128,6.7473063 16.66517,6.75080491 16.6829936,6.7620613 C16.6868235,6.72383012 16.7037142,6.68717078 16.7300324,6.65999318 C16.7352371,6.66825801 16.7374466,6.67850031 16.7360718,6.68828628 C16.7456465,6.68610599 16.75419,6.67961581 16.7589528,6.67084394 L16.7689203,6.69964408 C16.7937163,6.67885525 16.816401,6.65522696 16.836336,6.62931697 C16.8570075,6.64133393 16.8738001,6.66039881 16.8833747,6.6829116 C16.8964847,6.67672566 16.9088582,6.66896787 16.9201514,6.65973966 C16.944751,6.68570035 16.9615435,6.71936813 16.9678775,6.75511479 C16.9711673,6.74025837 16.9778941,6.72626394 16.9874688,6.71465261 C16.9898748,6.72317096 16.9909059,6.73209495 16.9905131,6.74101894 C16.9952759,6.7427936 17.0004806,6.74319923 17.0053907,6.74208374 C17.0090733,6.82528979 16.9958651,6.90819162 16.9917897,6.99144838 C16.98413,7.14726325 17.0084841,7.30353447 16.9981729,7.45919723 C16.9952759,7.50275238 16.9896784,7.54605401 16.9840809,7.58930493 C16.9840809,7.65015031 16.9644896,7.71190837 16.9604142,7.77270304 C16.9589903,7.79349188 16.9645878,7.80971731 16.9673374,7.8299484 C16.9717074,7.8627542 16.9702835,7.89728395 16.9723948,7.93034328 C16.9774522,8.00746479 16.9629674,8.07049047 16.9605124,8.14223731 C16.9577136,8.22255321 16.99778,8.2926268 16.9688596,8.37547793 C16.9576645,8.40747245 16.9801037,8.45112901 16.9842773,8.48991794 C16.9872233,8.51750118 16.9848665,8.54569287 16.9800546,8.57388457 C16.996798,8.6331581 17.0088278,8.68959219 16.9782379,8.75327702 C16.9694488,8.77168275 16.9786798,8.80098994 16.9512814,8.81508579 C16.9487773,8.8164041 16.9491701,8.83349151 16.9534419,8.83795351 C16.9778941,8.86330575 16.981233,8.8910411 16.9791217,8.92024688 C16.9756355,8.96740205 16.9719038,9.01455722 16.9717074,9.06191521 C16.9713146,9.17954961 16.9715601,9.297184 16.9710691,9.4148184 C16.9708727,9.44737068 16.9777959,9.46937643 17.0135415,9.45142704 C17.0218886,9.51470623 17.0299903,9.57621077 17.0393686,9.64745057 C17.0173222,9.63832376 17.0075511,9.6342674 16.9981729,9.63036316 C16.992919,9.70423959 16.9856521,9.77811602 16.9834917,9.85204315 C16.9824605,9.88576163 16.9895802,9.9204435 16.9978291,9.95335071 C17.000677,9.96470851 17.0182552,9.97216207 17.0290574,9.98139029 L17.0400069,9.97342968 Z M7.11969237,17.5699752 C7.11944686,17.4993439 7.1212636,17.4280534 7.13005268,17.3580812 C7.13898906,17.2871963 7.14473387,15.2805157 7.14659971,15.1832645 C7.14709072,15.1580137 7.14802364,15.0468188 7.14910386,14.8934377 L5.03545363,17.5760598 C5.0391853,17.6361446 5.04296608,17.6962294 5.04640315,17.7562635 C5.05155875,17.8464668 5.05980772,17.9368221 5.05970952,18.0270254 C5.05926761,18.4073597 4.9646009,18.7968209 5.0786625,19.1700059 C5.14254288,19.0920731 5.18923792,18.9991317 5.21413212,18.900258 C5.24182508,18.9408216 5.26956714,18.9814359 5.2972601,19.0219995 C5.31341432,19.0087149 5.32956855,18.9954303 5.34577187,18.9821457 C5.36531407,19.0115036 5.38485626,19.0408615 5.40439845,19.0702701 C5.43547938,19.0131769 5.4665112,18.9560836 5.49754303,18.8990411 C5.53392686,18.9925909 5.57031069,19.0861406 5.60669452,19.179589 C5.6104262,19.1892736 5.61592551,19.2003778 5.62594211,19.2014426 C5.63419108,19.2023553 5.64131072,19.1957637 5.64661363,19.1892736 C5.69620562,19.1290366 5.69816966,19.0394418 5.74358808,18.9758077 C5.75026581,18.9663767 5.75910399,18.957047 5.77039722,18.9560329 C5.7992195,18.9535991 5.80300027,18.9981684 5.8192036,19.0230136 C5.86133225,19.087459 6.05434823,18.9765176 6.12495545,18.9859993 C6.14071687,18.9881289 6.15613458,18.9929458 6.17145409,18.9984726 L7.10810454,18.245511 C7.11797383,18.0685524 7.12322764,17.855695 7.12921796,17.7755312 C7.13422626,17.7076886 7.11998698,17.6385784 7.11969237,17.5699752 Z M13.6673091,8.73203185 L11.6872136,11.5213868 C11.6870172,11.518953 11.6866244,11.5165192 11.686428,11.5140854 C11.6761659,11.400558 11.6639888,11.2870307 11.6595697,11.1732498 C11.6553961,11.0658578 11.6610919,10.9581107 11.6606499,10.8505665 C11.6604535,10.7985437 11.6527447,10.7463688 11.6543159,10.6944981 C11.6600116,10.5112014 11.6673768,10.3279554 11.6757731,10.1447601 C11.681567,10.0172891 11.6902578,9.88997011 11.6973775,9.76254974 C11.7031223,9.66109007 11.7110276,9.5596304 11.7129425,9.45806933 C11.7141209,9.39352252 11.7015511,9.32862078 11.7036624,9.26417539 C11.7055774,9.20611875 11.7147101,9.14831564 11.7213879,9.09041113 L12.1791073,8.50943917 L12.1791073,8.5301266 C12.1944759,8.51648709 12.2043452,8.49590107 12.2082733,8.4724756 L13.4464529,6.90094088 C13.4519522,6.9090536 13.4574024,6.91417475 13.4600048,6.93263118 C13.46791,6.98921738 13.5157835,6.84070395 13.560269,6.75648381 L13.6020048,6.70354833 C13.6089772,6.70141874 13.6153603,6.70451171 13.6208596,6.71485543 C13.6697642,6.8073404 13.6298942,7.47253251 13.6459993,7.56968229 C13.6513022,7.60162612 13.6669163,7.69395898 13.6669654,7.7259028 C13.6671127,7.82533429 13.6154094,8.09376382 13.6150657,8.12885132 C13.6140346,8.2473477 13.6507621,8.35854263 13.6709917,8.47298265 C13.675509,8.4984363 13.6751162,8.52607024 13.6710899,8.551676 C13.6615152,8.61231856 13.6604841,8.67230197 13.6673091,8.73203185 Z" id="Fill-46" fill-opacity="0.9" fill="#D0021B"></path>
                        </g>
                    </g>
                </g>
            </g>
        </g>
    </g>
</svg>